<svg width="351" height="408" viewBox="0 0 351 408" fill="none" xmlns="http://www.w3.org/2000/svg">
<path d="M175.5 407.873C272.426 407.873 351 363.237 351 308.175C351 253.113 272.426 208.477 175.5 208.477C78.574 208.477 0 253.113 0 308.175C0 363.237 78.574 407.873 175.5 407.873Z" fill="#F5F5F5"/>
<path d="M248.532 371.036L117.528 295.394C116.376 294.73 115.419 293.774 114.753 292.623C114.088 291.471 113.737 290.165 113.737 288.835C113.737 287.505 114.088 286.198 114.753 285.047C115.419 283.895 116.376 282.939 117.528 282.275L130.452 274.126C132.682 272.841 135.212 272.165 137.786 272.165C140.36 272.165 142.89 272.841 145.12 274.126L276.142 349.777C277.294 350.441 278.252 351.396 278.917 352.548C279.583 353.7 279.933 355.006 279.933 356.336C279.933 357.666 279.583 358.973 278.917 360.124C278.252 361.276 277.294 362.232 276.142 362.896L263.219 371.036C260.987 372.328 258.454 373.008 255.876 373.008C253.297 373.008 250.764 372.328 248.532 371.036Z" fill="#E0E0E0"/>
<path d="M49.3413 302.074C65.0423 302.074 77.7704 294.765 77.7704 285.749C77.7704 276.732 65.0423 269.423 49.3413 269.423C33.6403 269.423 20.9122 276.732 20.9122 285.749C20.9122 294.765 33.6403 302.074 49.3413 302.074Z" fill="#E6E6E6"/>
<path d="M294.988 305.815L307.457 312.984C307.457 312.984 301.089 292.972 304.482 272.799C305.765 265.175 308.517 261.39 309.479 259.35C310.44 257.311 317.895 244.708 311.26 238.937C304.625 233.166 289.19 244.771 290.027 275.827C290.408 285.992 292.075 296.068 294.988 305.815Z" fill="#BA68C8"/>
<path opacity="0.5" d="M294.988 305.815L307.457 312.984C307.457 312.984 301.089 292.972 304.482 272.799C305.765 265.175 308.517 261.39 309.479 259.35C310.44 257.311 317.895 244.708 311.26 238.937C304.625 233.166 289.19 244.771 290.027 275.827C290.408 285.992 292.075 296.068 294.988 305.815Z" fill="black"/>
<path d="M300.786 309.591C300.695 309.593 300.606 309.567 300.531 309.516C300.456 309.464 300.399 309.391 300.367 309.306C300.323 309.173 295.558 296.151 295.709 275.221C295.861 254.291 306.86 242.927 306.967 242.82C307.008 242.778 307.058 242.745 307.112 242.723C307.166 242.7 307.224 242.688 307.283 242.688C307.342 242.688 307.4 242.7 307.454 242.723C307.509 242.745 307.558 242.778 307.599 242.82C307.641 242.861 307.674 242.911 307.697 242.965C307.719 243.019 307.731 243.077 307.731 243.136C307.731 243.195 307.719 243.253 307.697 243.308C307.674 243.362 307.641 243.411 307.599 243.452C307.493 243.559 296.751 254.585 296.6 275.23C296.449 295.875 301.151 308.879 301.205 309.003C301.245 309.114 301.239 309.237 301.189 309.344C301.139 309.451 301.048 309.533 300.937 309.573C300.888 309.588 300.837 309.595 300.786 309.591Z" fill="white"/>
<path d="M300.189 308.879L317.236 318.676C319.012 319.726 321.119 320.068 323.136 319.633C325.153 319.199 326.933 318.021 328.12 316.333C329.248 314.577 329.724 312.481 329.464 310.41C328.645 301.557 324.798 299.518 329.509 295.572C334.22 291.627 335.45 291.351 335.182 287.557C334.915 283.763 332.323 282.106 331.094 280.61C329.865 279.113 326.463 275.978 328.779 271.347C331.094 266.716 334.256 262.236 329.464 260.187C326.606 258.958 321.841 260.597 318.706 263.999C315.571 267.402 312.988 269.851 309.986 270.67C306.985 271.49 300.733 271.623 301 276.798C301.267 281.972 302.638 283.745 301.409 286.052C299.094 290.362 289.021 292.811 300.189 308.879Z" fill="#BA68C8"/>
<path d="M308.615 314.151C308.504 314.148 308.398 314.104 308.316 314.029C308.234 313.954 308.182 313.852 308.169 313.741C308.169 313.439 305.551 282.872 326.57 262.53C326.657 262.458 326.767 262.422 326.879 262.429C326.992 262.435 327.097 262.484 327.175 262.565C327.253 262.646 327.297 262.754 327.299 262.866C327.3 262.979 327.26 263.088 327.184 263.171C306.468 283.219 309.033 313.358 309.06 313.661C309.07 313.778 309.033 313.894 308.958 313.984C308.883 314.074 308.776 314.131 308.659 314.142L308.615 314.151Z" fill="white"/>
<path d="M311.99 287.842C311.878 287.842 311.77 287.8 311.687 287.724C311.605 287.648 311.554 287.544 311.545 287.432C311.358 285.063 310.691 282.757 309.584 280.655C308.477 278.552 306.953 276.698 305.106 275.204C305.057 275.17 305.016 275.127 304.985 275.077C304.953 275.027 304.932 274.972 304.922 274.914C304.912 274.856 304.914 274.797 304.927 274.739C304.94 274.682 304.965 274.628 304.999 274.58C305.032 274.532 305.074 274.491 305.123 274.46C305.172 274.429 305.226 274.407 305.283 274.397C305.341 274.387 305.399 274.389 305.456 274.402C305.513 274.415 305.566 274.439 305.613 274.473C307.582 276.035 309.205 277.988 310.38 280.209C311.554 282.431 312.254 284.872 312.436 287.379C312.445 287.498 312.408 287.616 312.331 287.708C312.255 287.799 312.145 287.857 312.026 287.868L311.99 287.842Z" fill="white"/>
<path d="M310.538 293.088C310.431 293.089 310.326 293.051 310.245 292.981C310.156 292.902 310.102 292.792 310.094 292.674C310.085 292.555 310.124 292.439 310.2 292.348C310.414 292.099 315.677 286.292 328.013 287.833C328.13 287.848 328.236 287.91 328.307 288.003C328.379 288.097 328.411 288.215 328.396 288.332C328.38 288.449 328.319 288.556 328.226 288.629C328.133 288.702 328.015 288.736 327.897 288.723C316.051 287.236 310.913 292.883 310.859 292.936C310.819 292.982 310.769 293.018 310.714 293.044C310.659 293.07 310.599 293.085 310.538 293.088Z" fill="white"/>
<path d="M244.542 361.996L129.329 295.475C121.198 290.781 114.607 278.187 114.607 267.348V20.6418C114.607 9.80277 121.198 4.82411 129.329 9.51777L244.542 76.0394C252.674 80.7331 259.264 93.3267 259.264 104.166V350.872C259.264 361.702 252.674 366.69 244.542 361.996Z" fill="#455A64"/>
<path d="M257.813 68.282L142.591 1.76031C139.117 -0.243624 135.929 -0.47519 133.408 0.753889C133.1 0.90842 132.802 1.08399 132.518 1.27936L119.604 8.78743C122.204 7.22882 125.606 7.3446 129.338 9.49994L244.551 76.0216C252.683 80.7153 259.273 93.3089 259.273 104.148V350.854C259.273 356.59 257.43 360.651 254.491 362.575L267.236 355.156C270.486 353.428 272.579 349.198 272.579 343.133V96.4261C272.579 85.5692 265.944 72.9756 257.813 68.282Z" fill="#37474F"/>
<path d="M259.264 104.148V350.854C259.264 356.59 257.421 360.651 254.482 362.575L267.236 355.156C270.486 353.428 272.579 349.198 272.579 343.133V96.4261L259.309 104.13L259.264 104.148Z" fill="#263238"/>
<path d="M272.535 115.566L259.264 123.225V129.21L272.535 121.542V115.566Z" fill="#37474F"/>
<path d="M266.719 155.369C265.534 156.054 264.573 155.324 264.573 153.748V140.878C264.585 140.073 264.785 139.283 265.158 138.57C265.531 137.857 266.065 137.241 266.719 136.772C267.904 136.086 268.865 136.772 268.865 138.393V151.263C268.853 152.067 268.653 152.858 268.28 153.571C267.907 154.284 267.373 154.899 266.719 155.369Z" fill="#37474F"/>
<path d="M264.564 153.783V140.878C264.576 140.073 264.776 139.283 265.149 138.57C265.522 137.857 266.056 137.241 266.71 136.772C266.905 136.635 267.133 136.552 267.37 136.53C267.608 136.508 267.847 136.549 268.064 136.647L266.452 135.819C266.231 135.713 265.987 135.667 265.743 135.686C265.499 135.704 265.264 135.787 265.062 135.926C264.408 136.395 263.872 137.01 263.498 137.723C263.124 138.436 262.922 139.227 262.907 140.032V152.892C262.874 153.217 262.923 153.545 263.051 153.846C263.179 154.147 263.38 154.41 263.637 154.611L265.321 155.502C265.053 155.309 264.841 155.048 264.708 154.746C264.575 154.443 264.525 154.111 264.564 153.783Z" fill="#455A64"/>
<path d="M266.719 186.514C265.534 187.2 264.573 186.514 264.573 184.893V172.023C264.585 171.219 264.786 170.429 265.159 169.716C265.531 169.003 266.066 168.387 266.719 167.918C267.904 167.232 268.865 167.918 268.865 169.547V182.408C268.855 183.213 268.655 184.004 268.282 184.717C267.909 185.431 267.374 186.046 266.719 186.514Z" fill="#37474F"/>
<path d="M264.564 184.893V172.023C264.576 171.219 264.777 170.429 265.15 169.716C265.523 169.003 266.057 168.387 266.71 167.918C266.907 167.783 267.134 167.701 267.371 167.68C267.608 167.658 267.846 167.697 268.064 167.793L266.452 166.956C266.233 166.845 265.987 166.796 265.742 166.815C265.497 166.834 265.262 166.92 265.062 167.063C264.407 167.53 263.87 168.145 263.495 168.859C263.121 169.572 262.919 170.363 262.907 171.168V184.065C262.873 184.39 262.922 184.718 263.05 185.019C263.177 185.32 263.38 185.583 263.637 185.784L265.321 186.674C265.042 186.477 264.823 186.206 264.69 185.891C264.556 185.577 264.512 185.231 264.564 184.893Z" fill="#455A64"/>
<path d="M240.516 82.9597L127.299 17.5691C126.826 17.2973 126.291 17.1537 125.746 17.1527C125.201 17.1517 124.665 17.2933 124.191 17.5633C123.718 17.8334 123.323 18.2226 123.046 18.6923C122.77 19.162 122.621 19.6959 122.614 20.241V267.348C122.614 275.596 128.465 285.722 135.608 289.846L246.047 353.642C246.571 353.943 247.165 354.102 247.769 354.101C248.373 354.101 248.967 353.941 249.49 353.639C250.013 353.337 250.448 352.902 250.75 352.379C251.053 351.856 251.212 351.263 251.213 350.658V101.512C251.258 94.7072 246.43 86.3619 240.516 82.9597Z" fill="#BA68C8"/>
<path opacity="0.9" d="M240.516 82.9597L127.299 17.5691C126.826 17.2973 126.291 17.1537 125.746 17.1527C125.201 17.1517 124.665 17.2933 124.191 17.5633C123.718 17.8334 123.323 18.2226 123.046 18.6923C122.77 19.162 122.621 19.6959 122.614 20.241V267.348C122.614 275.596 128.465 285.722 135.608 289.846L246.047 353.642C246.571 353.943 247.165 354.102 247.769 354.101C248.373 354.101 248.967 353.941 249.49 353.639C250.013 353.337 250.448 352.902 250.75 352.379C251.053 351.856 251.212 351.263 251.213 350.658V101.512C251.258 94.7072 246.43 86.3619 240.516 82.9597Z" fill="white"/>
<path d="M161.161 34.6426L162.915 42.026L200.447 63.6685L206.931 60.2128L161.161 34.6426Z" fill="#455A64"/>
<path d="M172.196 41.7766C172.196 43.0056 171.305 43.4955 170.272 42.8899C169.717 42.5216 169.257 42.0285 168.927 41.45C168.598 40.8715 168.409 40.2238 168.375 39.5589C168.375 38.3387 169.265 37.8399 170.299 38.4545C170.853 38.8208 171.314 39.3123 171.643 39.8894C171.973 40.4664 172.162 41.1129 172.196 41.7766Z" fill="#263238"/>
<path d="M197.481 57.4073C197.275 57.4056 197.074 57.3537 196.893 57.2559L177.727 46.5682C177.456 46.4093 177.258 46.1509 177.176 45.8481C177.093 45.5454 177.132 45.2223 177.284 44.9479C177.436 44.6735 177.69 44.4696 177.991 44.3796C178.291 44.2896 178.615 44.3207 178.893 44.4663L198.069 55.154C198.302 55.2835 198.485 55.4869 198.59 55.7321C198.695 55.9773 198.715 56.2504 198.648 56.5084C198.581 56.7665 198.429 56.9948 198.218 57.1575C198.007 57.3203 197.748 57.4081 197.481 57.4073Z" fill="#263238"/>
<path d="M146.358 68.9945C145.192 68.3177 144.345 68.9055 144.345 70.3928C144.345 71.1366 144.529 71.8689 144.88 72.5246C145.232 73.1803 145.739 73.7391 146.358 74.1513C146.69 74.3526 147.07 74.459 147.458 74.459C147.846 74.459 148.227 74.3526 148.558 74.1513L150.42 77.5179C149.765 77.8793 149.022 78.0515 148.275 78.0153C147.528 77.9791 146.806 77.736 146.189 77.3131C144.677 76.3879 143.416 75.1042 142.518 73.5756C141.62 72.047 141.113 70.3206 141.041 68.5492C141.041 65.245 143.259 64.096 146.314 65.8773C148.039 66.9882 149.452 68.521 150.42 70.3305L148.558 71.8089C148.099 70.6855 147.338 69.7113 146.358 68.9945Z" fill="#BA68C8"/>
<path d="M161.134 80.1542C161.134 83.4852 158.881 84.6074 155.79 82.8261C154.235 81.8966 152.933 80.5972 152.001 79.0434C151.069 77.4896 150.535 75.7296 150.446 73.9197C150.446 70.5888 152.7 69.4666 155.79 71.2478C157.349 72.1731 158.654 73.4715 159.587 75.0262C160.52 76.5809 161.051 78.343 161.134 80.1542ZM153.751 75.9059C153.766 76.6706 153.963 77.4206 154.326 78.0942C154.688 78.7678 155.205 79.3456 155.835 79.7801C156.939 80.4214 157.83 79.7801 157.83 78.266C157.827 77.5186 157.644 76.7828 157.297 76.1209C156.949 75.459 156.448 74.8904 155.835 74.463C154.713 73.8129 153.751 74.3651 153.751 75.9059Z" fill="#BA68C8"/>
<path d="M164.723 76.6183L168.571 84.634V78.8627L171.483 80.546V91.777L168.811 90.2272L164.982 82.2828V88.0185L162.051 86.3262V75.0686L164.723 76.6183Z" fill="#BA68C8"/>
<path d="M181.004 86.0145V88.9536L178.225 87.3505V95.6512L175.01 93.7898V85.489L172.249 83.8948V80.9646L181.004 86.0145Z" fill="#BA68C8"/>
<path d="M187.274 99.2851L183.623 97.1743L183.124 98.4746L179.828 96.5686L183.934 87.7068L187.239 89.6127L191.193 103.133L187.764 101.155L187.274 99.2851ZM186.481 96.1678L185.484 92.3292L184.46 95.0011L186.481 96.1678Z" fill="#BA68C8"/>
<path d="M196.296 97.8244C195.13 97.1564 194.284 97.7353 194.284 99.2316C194.285 99.9751 194.469 100.707 194.821 101.362C195.172 102.018 195.678 102.577 196.296 102.99C196.63 103.189 197.012 103.295 197.401 103.295C197.79 103.295 198.171 103.189 198.505 102.99L200.367 106.357C199.709 106.714 198.966 106.884 198.218 106.848C197.471 106.811 196.747 106.571 196.127 106.152C194.614 105.226 193.352 103.941 192.454 102.41C191.556 100.88 191.05 99.1519 190.979 97.3791C190.979 94.0748 193.206 92.9259 196.252 94.7071C197.975 95.8235 199.39 97.3547 200.367 99.1603L198.505 100.63C198.036 99.5123 197.273 98.5428 196.296 97.8244Z" fill="#BA68C8"/>
<path d="M209.148 102.269V105.199L206.369 103.596V111.923L203.154 110.062V101.761L200.393 100.167V97.2366L209.148 102.269Z" fill="#BA68C8"/>
<path d="M218.651 116.056C219.444 116.51 220.05 116.154 220.05 115.04V108.565L223.274 110.418V116.893C223.274 119.877 221.492 120.767 218.642 119.137C217.269 118.375 216.115 117.273 215.29 115.936C214.465 114.6 213.997 113.074 213.931 111.505V105.03L217.155 106.891V113.366C217.167 113.902 217.31 114.427 217.571 114.896C217.832 115.364 218.202 115.762 218.651 116.056Z" fill="#BA68C8"/>
<path d="M228.466 116.091C228.101 115.887 227.869 115.878 227.869 116.216C227.869 117.623 232.902 119.654 232.902 123.724C232.902 126.218 231.004 126.227 228.813 124.962C226.888 123.782 225.228 122.214 223.942 120.358L225.135 118.256C226.114 119.772 227.372 121.09 228.84 122.139C229.312 122.415 229.615 122.415 229.615 122.014C229.615 120.554 224.574 118.612 224.574 114.666C224.574 112.422 226.213 111.994 228.742 113.419C230.372 114.405 231.806 115.682 232.973 117.187L231.806 119.342C230.842 118.115 229.719 117.022 228.466 116.091Z" fill="#BA68C8"/>
<path d="M130.158 124.339C133.771 119.9 135.59 114.269 135.256 108.555C134.921 102.841 132.458 97.4605 128.351 93.4741C124.244 89.4877 118.792 87.1853 113.071 87.0211C107.35 86.857 101.775 88.843 97.4461 92.5873C93.1174 96.3316 90.3491 101.562 89.6875 107.247C89.026 112.933 90.5191 118.659 93.8724 123.297C97.2256 127.936 102.195 131.149 107.801 132.303C113.407 133.457 119.242 132.468 124.155 129.531L135.306 134.376L130.158 124.339Z" fill="#BA68C8"/>
<path opacity="0.4" d="M130.158 124.339C133.771 119.9 135.59 114.269 135.256 108.555C134.921 102.841 132.458 97.4605 128.351 93.4741C124.244 89.4877 118.792 87.1853 113.071 87.0211C107.35 86.857 101.775 88.843 97.4461 92.5873C93.1174 96.3316 90.3491 101.562 89.6875 107.247C89.026 112.933 90.5191 118.659 93.8724 123.297C97.2256 127.936 102.195 131.149 107.801 132.303C113.407 133.457 119.242 132.468 124.155 129.531L135.306 134.376L130.158 124.339Z" fill="black"/>
<path d="M103.937 108.663C103.937 108.316 103.688 108.12 103.234 108.12C102.18 108.258 101.196 108.722 100.419 109.447L99.1547 106.989C100.486 105.987 102.094 105.421 103.759 105.368C105.897 105.368 107.518 106.49 107.518 108.165C107.518 109.358 106.627 110.507 105.487 111.656L103.893 113.232H107.66V115.851H99.5644V113.704L103.171 109.973C103.56 109.629 103.828 109.17 103.937 108.663Z" fill="white"/>
<path d="M114.251 105.519L111.793 111.415H112.799V109.429H115.899V111.415H117.074V113.847H115.899V115.851H112.799V113.847H108.391V111.638L111.062 105.519H114.251Z" fill="white"/>
<path d="M126.64 110.712V115.851H123.327V111.665C123.346 111.529 123.335 111.39 123.296 111.258C123.257 111.126 123.19 111.004 123.1 110.9C123.009 110.796 122.898 110.713 122.773 110.656C122.647 110.599 122.511 110.569 122.374 110.569C121.723 110.569 121.314 111.077 121.314 111.861V115.851H118.001V104.932H121.314V108.948C121.573 108.539 121.934 108.204 122.362 107.976C122.79 107.748 123.269 107.635 123.754 107.648C124.151 107.638 124.546 107.712 124.913 107.864C125.279 108.017 125.61 108.246 125.882 108.535C126.154 108.824 126.363 109.167 126.493 109.542C126.624 109.918 126.674 110.316 126.64 110.712Z" fill="white"/>
<path d="M234.674 193.47V304.132C234.676 305.383 234.348 306.613 233.723 307.698C233.099 308.782 232.199 309.683 231.116 310.31C230.032 310.937 228.803 311.267 227.551 311.267C226.3 311.268 225.07 310.938 223.986 310.313L164.385 275.898L153.822 269.806C150.184 267.703 147.163 264.682 145.059 261.045C142.955 257.408 141.843 253.283 141.834 249.081V138.411C141.832 137.159 142.16 135.929 142.784 134.845C143.409 133.76 144.308 132.859 145.392 132.232C146.475 131.606 147.705 131.276 148.956 131.275C150.208 131.275 151.438 131.604 152.521 132.23L222.704 172.745C226.343 174.845 229.364 177.865 231.466 181.503C233.567 185.142 234.673 189.269 234.674 193.47Z" fill="#BA68C8"/>
<path opacity="0.5" d="M234.674 193.47V304.132C234.676 305.383 234.348 306.613 233.723 307.698C233.099 308.782 232.199 309.683 231.116 310.31C230.032 310.937 228.803 311.267 227.551 311.267C226.3 311.268 225.07 310.938 223.986 310.313L164.385 275.898L153.822 269.806C150.184 267.703 147.163 264.682 145.059 261.045C142.955 257.408 141.843 253.283 141.834 249.081V138.411C141.832 137.159 142.16 135.929 142.784 134.845C143.409 133.76 144.308 132.859 145.392 132.232C146.475 131.606 147.705 131.276 148.956 131.275C150.208 131.275 151.438 131.604 152.521 132.23L222.704 172.745C226.343 174.845 229.364 177.865 231.466 181.503C233.567 185.142 234.673 189.269 234.674 193.47Z" fill="white"/>
<path d="M200.34 258.949C200.34 258.949 211.499 277.457 203.439 298.325L164.358 275.898L200.34 258.949Z" fill="#263238"/>
<path d="M218.137 175.797C218.982 168.938 214.106 162.693 207.247 161.848C200.388 161.004 194.142 165.879 193.298 172.739C192.453 179.598 197.329 185.843 204.188 186.688C211.047 187.532 217.292 182.656 218.137 175.797Z" fill="#263238"/>
<path d="M205.782 139.168C205.782 139.168 209.62 132.933 210.796 133.388C211.972 133.842 210.03 139.782 210.03 139.782C210.03 139.782 215.837 140.994 214.759 142.454C213.682 143.915 206.583 143.568 206.583 143.568L205.782 139.168Z" fill="#263238"/>
<path d="M208.453 155.235C205.782 175.31 188.859 175.31 188.859 175.31L153.412 159.706C153.412 159.706 150.74 157.363 149.921 151.984C149.606 149.78 149.606 147.543 149.921 145.34C149.921 145.34 149.921 145.295 149.921 145.278C151.052 136.834 157.367 127.759 171.118 124.971C174.132 124.363 177.199 124.064 180.274 124.08C181.761 124.075 183.248 124.149 184.727 124.303C195.415 125.354 202.905 130.342 206.476 138.099C207.28 139.85 207.877 141.688 208.258 143.576C208.982 147.423 209.049 151.366 208.453 155.235Z" fill="#263238"/>
<path d="M123.353 194.067C123.353 194.067 110.768 193.63 105.923 205.894C105.923 205.894 111.267 209.501 118.276 205.894C125.286 202.287 123.353 194.067 123.353 194.067Z" fill="#BA68C8"/>
<path opacity="0.5" d="M123.353 194.067C123.353 194.067 110.768 193.63 105.923 205.894C105.923 205.894 111.267 209.501 118.276 205.894C125.286 202.287 123.353 194.067 123.353 194.067Z" fill="black"/>
<path d="M122.997 199.972C122.997 199.972 119.434 184.492 117.555 184.305C115.676 184.118 115.311 189.026 115.462 191.796L111.009 182.212C110.868 181.914 110.667 181.649 110.419 181.432C110.171 181.214 109.881 181.05 109.568 180.949C109.254 180.848 108.923 180.813 108.595 180.844C108.267 180.876 107.949 180.975 107.66 181.135C103.207 183.584 95.3961 191.03 111.864 209.439L122.997 199.972Z" fill="#945959"/>
<path d="M168.597 189.266L165.926 188.919C163.233 188.562 160.494 188.928 157.989 189.98C155.485 191.032 153.306 192.731 151.675 194.904L135.778 216.065L123.309 194.067C123.309 194.067 121.812 209.029 105.879 205.894L122.988 234.689C124.071 236.511 125.578 238.046 127.381 239.161C129.184 240.276 131.23 240.94 133.345 241.095C135.459 241.249 137.58 240.891 139.526 240.05C141.472 239.209 143.187 237.911 144.524 236.265L159.166 218.265L168.597 189.266Z" fill="#BA68C8"/>
<path d="M202.531 238.652C198.968 247.683 198.576 249.446 200.749 253.962C202.263 257.297 203.456 260.768 204.312 264.329C204.312 264.329 187.8 282.836 164.296 275.907L153.733 269.815C151.536 268.548 149.557 266.937 147.872 265.041L151.088 241.066C151.249 239.803 151.121 238.521 150.713 237.316L147.338 227.421C145.691 222.588 145.446 217.387 146.631 212.421C147.816 207.455 150.383 202.925 154.036 199.357L165.382 188.269L195.183 192.08L199.636 193.354C202.552 194.197 205.065 196.064 206.714 198.612C208.363 201.159 209.038 204.216 208.614 207.221C207.153 217.731 204.766 232.979 202.531 238.652Z" fill="#BA68C8"/>
<path opacity="0.5" d="M202.531 238.652C198.968 247.683 198.576 249.446 200.749 253.962C202.263 257.297 203.456 260.768 204.312 264.329C204.312 264.329 187.8 282.836 164.296 275.907L153.733 269.815C151.536 268.548 149.557 266.937 147.872 265.041L151.088 241.066C151.249 239.803 151.121 238.521 150.713 237.316L147.338 227.421C145.691 222.588 145.446 217.387 146.631 212.421C147.816 207.455 150.383 202.925 154.036 199.357L165.382 188.269L195.183 192.08L199.636 193.354C202.552 194.197 205.065 196.064 206.714 198.612C208.363 201.159 209.038 204.216 208.614 207.221C207.153 217.731 204.766 232.979 202.531 238.652Z" fill="black"/>
<path d="M184.558 211.675L178.59 206.589C177.959 206.048 177.196 205.682 176.38 205.526C175.563 205.37 174.719 205.429 173.932 205.698L166.718 208.183L165.748 204.14C165.596 203.511 165.319 202.919 164.932 202.4C164.546 201.881 164.058 201.446 163.499 201.12C162.94 200.795 162.32 200.586 161.678 200.506C161.036 200.427 160.384 200.478 159.762 200.657L156.636 201.548L161.927 191.413C163.654 188.112 166.315 185.392 169.577 183.593L171.652 182.453L188.797 183.343C188.797 183.343 195.183 186.015 195.183 192.027L184.558 211.621" fill="#BA68C8"/>
<path d="M188.868 190.941L171.679 204.336V161.683H188.868V190.941Z" fill="#945959"/>
<path d="M171.946 187.422L166.718 208.219L188.797 190.94L171.946 187.422Z" fill="#945959"/>
<path d="M171.679 184.332C175.501 182.913 178.995 180.731 181.949 177.92C184.902 175.109 187.253 171.727 188.86 167.98V161.683H171.67L171.679 184.332Z" fill="#703838"/>
<path d="M175.384 130.074C168.865 130.074 155.006 133.708 153.403 150.773C151.8 167.837 153.35 181.054 162.149 182.337C170.949 183.619 191.398 177.234 194.141 155.146C196.884 133.058 181.734 130.074 175.384 130.074Z" fill="#945959"/>
<path d="M165.124 157.996V168.051L159.228 166.243L165.124 157.996Z" fill="#703838"/>
<path d="M171.679 161.781C172.81 161.781 173.728 160.864 173.728 159.733C173.728 158.601 172.81 157.684 171.679 157.684C170.548 157.684 169.631 158.601 169.631 159.733C169.631 160.864 170.548 161.781 171.679 161.781Z" fill="#263238"/>
<path d="M160.243 158.308C160.242 158.712 160.12 159.108 159.894 159.443C159.668 159.779 159.347 160.04 158.973 160.194C158.598 160.347 158.187 160.387 157.79 160.307C157.393 160.227 157.029 160.031 156.743 159.744C156.458 159.457 156.263 159.092 156.185 158.695C156.107 158.298 156.148 157.887 156.303 157.513C156.459 157.139 156.721 156.82 157.058 156.595C157.394 156.37 157.79 156.25 158.195 156.25C158.465 156.25 158.732 156.304 158.981 156.407C159.23 156.511 159.456 156.662 159.647 156.853C159.837 157.045 159.988 157.271 160.09 157.521C160.192 157.771 160.245 158.038 160.243 158.308Z" fill="#263238"/>
<path d="M155.692 154.033L159.7 151.655C159.7 151.655 158.168 150.06 156.636 151.013C155.104 151.966 155.692 154.033 155.692 154.033Z" fill="#263238"/>
<path d="M162.354 172.13C164.306 172.273 166.249 171.752 167.867 170.652C167.867 170.652 168.25 173.564 165.81 174.116C163.369 174.669 162.354 172.13 162.354 172.13Z" fill="#703838"/>
<path d="M158.854 135.881C158.854 135.881 161.303 159.439 193.339 160.178C193.339 160.178 203.021 136.763 183.89 129.157C164.759 121.551 158.854 135.881 158.854 135.881Z" fill="#263238"/>
<path d="M202.771 156.651L198.835 154.371C197.338 153.48 195.272 153.605 192.983 154.923C188.441 157.542 184.754 163.927 184.754 169.173C184.754 171.801 185.644 173.626 187.176 174.517L191.042 176.744L191.264 176.868L191.398 176.949C192.858 177.661 194.809 177.492 196.955 176.254C201.498 173.582 205.185 167.25 205.185 162.004C205.158 159.35 204.241 157.515 202.771 156.651Z" fill="#BA68C8"/>
<path d="M202.74 170.066C205.952 164.503 205.952 158.489 202.74 156.635C199.528 154.78 194.321 157.787 191.109 163.35C187.897 168.914 187.897 174.927 191.109 176.782C194.32 178.636 199.528 175.629 202.74 170.066Z" fill="#BA68C8"/>
<path opacity="0.5" d="M202.74 170.066C205.952 164.503 205.952 158.489 202.74 156.635C199.528 154.78 194.321 157.787 191.109 163.35C187.897 168.914 187.897 174.927 191.109 176.782C194.32 178.636 199.528 175.629 202.74 170.066Z" fill="black"/>
<path d="M204.348 161.594L201.676 160.035C200.66 159.43 199.244 159.51 197.677 160.409C196.039 161.48 194.677 162.92 193.699 164.614C192.721 166.308 192.155 168.209 192.048 170.162C192.048 171.943 192.68 173.217 193.705 173.805L196.376 175.328C196.424 175.362 196.475 175.392 196.528 175.417L196.617 175.47C197.243 175.708 197.918 175.788 198.583 175.704C199.247 175.62 199.881 175.375 200.429 174.989C202.065 173.92 203.427 172.481 204.405 170.788C205.383 169.096 205.949 167.197 206.058 165.246C205.986 163.438 205.363 162.182 204.348 161.594Z" fill="#BA68C8"/>
<path d="M205.986 165.228C205.878 167.179 205.311 169.078 204.334 170.771C203.356 172.463 201.994 173.902 200.358 174.971C197.24 176.753 194.72 175.31 194.72 171.72C194.825 169.767 195.391 167.866 196.371 166.173C197.351 164.48 198.717 163.042 200.358 161.977C203.466 160.178 205.986 161.63 205.986 165.228Z" fill="#BA68C8"/>
<path opacity="0.3" d="M205.986 165.228C205.878 167.179 205.311 169.078 204.334 170.771C203.356 172.463 201.994 173.902 200.358 174.971C197.24 176.753 194.72 175.31 194.72 171.72C194.825 169.767 195.391 167.866 196.371 166.173C197.351 164.48 198.717 163.042 200.358 161.977C203.466 160.178 205.986 161.63 205.986 165.228Z" fill="black"/>
<path d="M190.543 125.479C187.99 123.507 184.863 122.421 181.636 122.388H180.844C177.577 122.353 174.315 122.651 171.109 123.279C171.697 123.279 172.285 123.279 172.89 123.279H171.109V124.935H172.766C178.475 125.13 183.885 127.536 187.852 131.646C191.82 135.757 194.033 141.248 194.025 146.961V153.97C194.025 154.247 194.083 154.521 194.195 154.774C194.308 155.028 194.472 155.254 194.678 155.44C194.884 155.626 195.126 155.766 195.39 155.852C195.653 155.938 195.932 155.967 196.207 155.938H196.412L198.193 155.386C198.075 155.424 197.952 155.448 197.828 155.458C198.359 155.385 198.845 155.12 199.193 154.713C199.542 154.306 199.728 153.785 199.716 153.249V146.747C199.699 134.982 194.613 128.658 190.543 125.479Z" fill="#BA68C8"/>
<path d="M179.33 181.847C178.595 181.847 177.869 181.689 177.201 181.384L171.635 178.81C171.548 178.779 171.468 178.73 171.401 178.667C171.333 178.603 171.28 178.526 171.244 178.441C171.208 178.356 171.19 178.264 171.192 178.172C171.193 178.079 171.213 177.988 171.252 177.904C171.29 177.82 171.345 177.745 171.414 177.683C171.483 177.621 171.564 177.575 171.652 177.546C171.74 177.517 171.833 177.507 171.925 177.516C172.017 177.525 172.106 177.553 172.187 177.599L177.753 180.173C178.463 180.503 179.258 180.603 180.028 180.459C180.798 180.316 181.503 179.935 182.046 179.371L187.39 173.849C187.515 173.724 187.685 173.654 187.862 173.654C188.039 173.654 188.209 173.724 188.334 173.849C188.457 173.976 188.526 174.145 188.526 174.321C188.526 174.498 188.457 174.667 188.334 174.793L182.99 180.315C182.514 180.804 181.945 181.191 181.316 181.454C180.687 181.718 180.012 181.851 179.33 181.847Z" fill="#BA68C8"/>
<path opacity="0.5" d="M179.33 181.847C178.595 181.847 177.869 181.689 177.201 181.384L171.635 178.81C171.548 178.779 171.468 178.73 171.401 178.667C171.333 178.603 171.28 178.526 171.244 178.441C171.208 178.356 171.19 178.264 171.192 178.172C171.193 178.079 171.213 177.988 171.252 177.904C171.29 177.82 171.345 177.745 171.414 177.683C171.483 177.621 171.564 177.575 171.652 177.546C171.74 177.517 171.833 177.507 171.925 177.516C172.017 177.525 172.106 177.553 172.187 177.599L177.753 180.173C178.463 180.503 179.258 180.603 180.028 180.459C180.798 180.316 181.503 179.935 182.046 179.371L187.39 173.849C187.515 173.724 187.685 173.654 187.862 173.654C188.039 173.654 188.209 173.724 188.334 173.849C188.457 173.976 188.526 174.145 188.526 174.321C188.526 174.498 188.457 174.667 188.334 174.793L182.99 180.315C182.514 180.804 181.945 181.191 181.316 181.454C180.687 181.718 180.012 181.851 179.33 181.847Z" fill="black"/>
<path d="M173.095 176.94C173.095 177.454 172.943 177.957 172.657 178.384C172.371 178.812 171.965 179.146 171.49 179.342C171.015 179.539 170.492 179.591 169.987 179.49C169.483 179.39 169.019 179.142 168.656 178.779C168.292 178.415 168.044 177.951 167.944 177.447C167.844 176.943 167.895 176.42 168.092 175.944C168.289 175.469 168.622 175.063 169.05 174.777C169.477 174.492 169.98 174.339 170.495 174.339C171.184 174.339 171.846 174.613 172.333 175.101C172.821 175.588 173.095 176.25 173.095 176.94Z" fill="#BA68C8"/>
<path opacity="0.5" d="M173.095 176.94C173.095 177.454 172.943 177.957 172.657 178.384C172.371 178.812 171.965 179.146 171.49 179.342C171.015 179.539 170.492 179.591 169.987 179.49C169.483 179.39 169.019 179.142 168.656 178.779C168.292 178.415 168.044 177.951 167.944 177.447C167.844 176.943 167.895 176.42 168.092 175.944C168.289 175.469 168.622 175.063 169.05 174.777C169.477 174.492 169.98 174.339 170.495 174.339C171.184 174.339 171.846 174.613 172.333 175.101C172.821 175.588 173.095 176.25 173.095 176.94Z" fill="black"/>
<path d="M199.699 146.747V153.249C199.71 153.785 199.524 154.306 199.176 154.713C198.827 155.121 198.341 155.385 197.81 155.458C197.517 155.489 197.22 155.458 196.94 155.367C196.659 155.276 196.401 155.127 196.181 154.93C195.962 154.732 195.787 154.491 195.667 154.221C195.547 153.951 195.485 153.66 195.486 153.365V146.747C195.491 143.589 194.857 140.462 193.622 137.555C192.387 134.649 190.577 132.022 188.301 129.832C186.024 127.643 183.329 125.937 180.376 124.817C177.423 123.697 174.274 123.186 171.118 123.314C174.324 122.687 177.586 122.389 180.853 122.424H181.628C184.854 122.457 187.981 123.542 190.534 125.514C194.613 128.658 199.699 134.982 199.699 146.747Z" fill="#BA68C8"/>
<path opacity="0.5" d="M199.699 146.747V153.249C199.71 153.785 199.524 154.306 199.176 154.713C198.827 155.121 198.341 155.385 197.81 155.458C197.517 155.489 197.22 155.458 196.94 155.367C196.659 155.276 196.401 155.127 196.181 154.93C195.962 154.732 195.787 154.491 195.667 154.221C195.547 153.951 195.485 153.66 195.486 153.365V146.747C195.491 143.589 194.857 140.462 193.622 137.555C192.387 134.649 190.577 132.022 188.301 129.832C186.024 127.643 183.329 125.937 180.376 124.817C177.423 123.697 174.274 123.186 171.118 123.314C174.324 122.687 177.586 122.389 180.853 122.424H181.628C184.854 122.457 187.981 123.542 190.534 125.514C194.613 128.658 199.699 134.982 199.699 146.747Z" fill="black"/>
<path d="M189.688 269.272C189.688 269.272 185.377 281.144 200.785 286.488C200.785 286.488 205.817 279.096 200.785 273.048C195.753 267.001 189.688 269.272 189.688 269.272Z" fill="#BA68C8"/>
<path opacity="0.7" d="M189.688 269.272C189.688 269.272 185.377 281.144 200.785 286.488C200.785 286.488 205.817 279.096 200.785 273.048C195.753 267.001 189.688 269.272 189.688 269.272Z" fill="black"/>
<path d="M195.094 269.815C195.094 269.815 180.042 275.328 180.122 277.466C180.202 279.603 186.517 278.143 186.517 278.143L184.21 279.657C181.781 281.242 179.9 283.537 178.822 286.23C178.587 286.824 178.579 287.483 178.799 288.083C179.019 288.682 179.452 289.18 180.015 289.481L185.733 292.509C186.056 292.68 186.41 292.785 186.774 292.817C187.138 292.849 187.505 292.808 187.853 292.696C188.201 292.584 188.523 292.403 188.8 292.164C189.077 291.926 189.303 291.634 189.465 291.306C189.784 290.677 190.224 290.116 190.761 289.658C191.297 289.199 191.92 288.851 192.591 288.634C195.7 287.601 201.498 284.627 203.822 276.486L195.094 269.815Z" fill="#945959"/>
<path d="M199.609 193.336C199.609 193.336 191.594 197.789 195.851 211.309C200.108 224.829 208.097 245.804 208.097 245.804L189.688 269.272C191.655 269.509 193.549 270.159 195.248 271.178C196.947 272.197 198.412 273.562 199.547 275.186C200.635 276.837 201.314 278.722 201.529 280.688C201.745 282.653 201.49 284.641 200.785 286.488L223.639 257.097C225.752 254.381 227.156 251.181 227.722 247.786C228.288 244.392 227.999 240.909 226.881 237.654L217.084 209.047C215.886 205.553 213.896 202.383 211.269 199.785C208.643 197.188 205.451 195.234 201.943 194.076L199.609 193.336Z" fill="#BA68C8"/>
<path d="M64.3039 113.473L28.8833 92.9883C28.4757 92.7058 28.0041 92.5294 27.5111 92.4749C27.0182 92.4205 26.5194 92.4898 26.06 92.6766C25.9631 92.7213 25.8707 92.775 25.7839 92.8369L18.0799 97.3525H18.1333C17.1625 97.9046 16.548 99.1872 16.548 101.022V140.424C16.548 143.755 18.5697 147.629 21.0724 149.072L56.493 169.556C56.9425 169.881 57.4774 170.067 58.0316 170.091C58.5858 170.115 59.1347 169.975 59.6103 169.69C59.5862 169.7 59.5648 169.715 59.5479 169.735L67.1985 165.281C68.196 164.747 68.8284 163.447 68.8284 161.585V122.121C68.8284 118.79 66.8422 114.916 64.3039 113.473Z" fill="#BA68C8"/>
<path d="M67.5637 117.205C66.847 115.681 65.7178 114.388 64.3039 113.473L28.8833 92.9883C28.4757 92.7058 28.0041 92.5294 27.5111 92.4749C27.0182 92.4205 26.5194 92.4898 26.06 92.6766C25.9631 92.7213 25.8707 92.775 25.7839 92.8369L18.0799 97.3525C18.5511 97.1116 19.0796 97.0049 19.6074 97.0442C20.1351 97.0835 20.642 97.2671 21.0724 97.5751L56.493 118.06C57.955 119.016 59.1137 120.369 59.8329 121.961L67.5637 117.205Z" fill="#BA68C8"/>
<path d="M61.0175 166.092C61.0175 167.873 60.4475 169.111 59.548 169.654L67.1985 165.201C68.196 164.667 68.8284 163.366 68.8284 161.505V122.121C68.7907 120.407 68.3579 118.724 67.5637 117.205L59.833 121.961C60.5752 123.436 60.9798 125.057 61.0175 126.708V166.092Z" fill="#BA68C8"/>
<path opacity="0.3" d="M67.5637 117.205C66.847 115.681 65.7178 114.388 64.3039 113.473L28.8833 92.9883C28.4757 92.7058 28.0041 92.5294 27.5111 92.4749C27.0182 92.4205 26.5194 92.4898 26.06 92.6766C25.9631 92.7213 25.8707 92.775 25.7839 92.8369L18.0799 97.3525C18.5511 97.1116 19.0796 97.0049 19.6074 97.0442C20.1351 97.0835 20.642 97.2671 21.0724 97.5751L56.493 118.06C57.955 119.016 59.1137 120.369 59.8329 121.961L67.5637 117.205Z" fill="black"/>
<path opacity="0.6" d="M61.0175 166.092C61.0175 167.873 60.4475 169.111 59.548 169.654L67.1985 165.201C68.196 164.667 68.8284 163.366 68.8284 161.505V122.121C68.7907 120.407 68.3579 118.724 67.5637 117.205L59.833 121.961C60.5752 123.436 60.9798 125.057 61.0175 126.708V166.092Z" fill="black"/>
<path d="M50.6327 137.992C50.6327 143.095 48.6109 144.832 45.5827 143.078C44.7474 142.602 44.0169 141.962 43.4353 141.197C42.8537 140.432 42.4329 139.557 42.1983 138.624C41.3077 139.72 39.9272 139.791 37.9856 138.669C34.7971 136.825 32.2855 132.435 32.2855 128.168C32.2855 123.902 34.7704 122.433 37.9856 124.285C39.6171 125.247 40.935 126.66 41.7797 128.355V126.672L45.1374 128.614V137.841C45.0874 138.326 45.1714 138.816 45.3802 139.257C45.589 139.699 45.9148 140.074 46.322 140.343C47.4531 141.002 48.1478 139.889 48.1478 136.585C48.1478 130.805 44.4427 124.677 38.9653 121.515C33.4879 118.354 29.7917 120.553 29.7917 126.503C29.8635 129.66 30.7334 132.747 32.3203 135.477C33.9073 138.207 36.1596 140.491 38.8673 142.116C40.3376 143.021 42.0071 143.553 43.7302 143.665L44.5229 146.738C42.5165 146.576 40.5777 145.938 38.8673 144.877C31.7422 140.753 27.0308 132.452 27.0308 124.935C27.0308 117.418 31.7868 114.693 38.9653 118.843C45.9034 122.842 50.6327 130.849 50.6327 137.992ZM41.8332 133.708C41.8505 132.579 41.5749 131.464 41.0333 130.473C40.4917 129.482 39.7025 128.648 38.7426 128.053C36.9614 127.011 35.6878 127.741 35.6878 130.163C35.6649 131.295 35.934 132.413 36.4691 133.41C37.0042 134.406 37.7872 135.249 38.7426 135.855C40.5239 136.861 41.8332 136.211 41.8332 133.708Z" fill="#BA68C8"/>
<g opacity="0.9">
<path d="M50.6327 137.992C50.6327 143.095 48.6109 144.832 45.5827 143.078C44.7474 142.602 44.0169 141.962 43.4353 141.197C42.8537 140.432 42.4329 139.557 42.1983 138.624C41.3077 139.72 39.9272 139.791 37.9856 138.669C34.7971 136.825 32.2855 132.435 32.2855 128.168C32.2855 123.902 34.7704 122.433 37.9856 124.285C39.6171 125.247 40.935 126.66 41.7797 128.355V126.672L45.1374 128.614V137.841C45.0874 138.326 45.1714 138.816 45.3802 139.257C45.589 139.699 45.9148 140.074 46.322 140.343C47.4531 141.002 48.1478 139.889 48.1478 136.585C48.1478 130.805 44.4427 124.677 38.9653 121.515C33.4879 118.354 29.7917 120.553 29.7917 126.503C29.8635 129.66 30.7334 132.747 32.3203 135.477C33.9073 138.207 36.1596 140.491 38.8673 142.116C40.3376 143.021 42.0071 143.553 43.7302 143.665L44.5229 146.738C42.5165 146.576 40.5777 145.938 38.8673 144.877C31.7422 140.753 27.0308 132.452 27.0308 124.935C27.0308 117.418 31.7868 114.693 38.9653 118.843C45.9034 122.842 50.6327 130.849 50.6327 137.992ZM41.8332 133.708C41.8505 132.579 41.5749 131.464 41.0333 130.473C40.4917 129.482 39.7025 128.648 38.7426 128.053C36.9614 127.011 35.6878 127.741 35.6878 130.163C35.6649 131.295 35.934 132.413 36.4691 133.41C37.0042 134.406 37.7872 135.249 38.7426 135.855C40.5239 136.861 41.8332 136.211 41.8332 133.708Z" fill="white"/>
</g>
<path d="M64.3039 183.637L28.8833 163.153C28.4762 162.869 28.004 162.692 27.5105 162.639C27.0169 162.586 26.518 162.658 26.06 162.85C25.9631 162.894 25.8707 162.948 25.7839 163.01L18.0799 167.526H18.1333C17.1625 168.078 16.548 169.36 16.548 171.186V210.57C16.548 213.91 18.5697 217.775 21.0724 219.218L56.493 239.703C56.9415 240.03 57.4768 240.217 58.0314 240.241C58.5861 240.265 59.1354 240.124 59.6103 239.836L59.5479 239.89L67.1985 235.392C68.196 234.867 68.8284 233.611 68.8284 231.696V192.276C68.8284 188.945 66.8422 185.08 64.3039 183.637Z" fill="#BA68C8"/>
<path d="M67.5637 187.369C66.8495 185.843 65.7197 184.55 64.3039 183.637L28.8833 163.153C28.4762 162.869 28.004 162.692 27.5105 162.639C27.0169 162.586 26.518 162.658 26.06 162.85C25.9631 162.894 25.8707 162.948 25.7839 163.01L18.0799 167.526C18.5501 167.282 19.0782 167.174 19.6062 167.212C20.1342 167.249 20.6415 167.432 21.0724 167.739L56.493 188.224C57.9573 189.181 59.1164 190.538 59.8329 192.134L67.5637 187.369Z" fill="#BA68C8"/>
<path d="M61.0175 236.247C61.0175 238.028 60.4475 239.266 59.548 239.854L67.1985 235.357C68.196 234.831 68.8284 233.575 68.8284 231.66V192.276C68.7907 190.565 68.3578 188.885 67.5637 187.369L59.833 192.125C60.5751 193.597 60.9797 195.215 61.0175 196.863V236.247Z" fill="#BA68C8"/>
<path opacity="0.3" d="M67.5637 187.369C66.8495 185.843 65.7197 184.55 64.3039 183.637L28.8833 163.153C28.4762 162.869 28.004 162.692 27.5105 162.639C27.0169 162.586 26.518 162.658 26.06 162.85C25.9631 162.894 25.8707 162.948 25.7839 163.01L18.0799 167.526C18.5501 167.282 19.0782 167.174 19.6062 167.212C20.1342 167.249 20.6415 167.432 21.0724 167.739L56.493 188.224C57.9573 189.181 59.1164 190.538 59.8329 192.134L67.5637 187.369Z" fill="black"/>
<path opacity="0.6" d="M61.0175 236.247C61.0175 238.028 60.4475 239.266 59.548 239.854L67.1985 235.357C68.196 234.831 68.8284 233.575 68.8284 231.66V192.276C68.7907 190.565 68.3578 188.885 67.5637 187.369L59.833 192.125C60.5751 193.597 60.9797 195.215 61.0175 196.863V236.247Z" fill="black"/>
<path d="M34.8239 201.245L26.2827 187.369V206.17L34.8239 201.245Z" fill="#BA68C8"/>
<path d="M42.7594 205.244L51.2828 220.002V201.227L42.7594 205.244Z" fill="#BA68C8"/>
<path d="M27.5741 186.737L36.3469 200.987C36.384 201.018 36.417 201.054 36.4449 201.094C36.4526 201.129 36.4526 201.165 36.4449 201.201L39.0544 205.44L41.2632 204.398C41.2976 204.361 41.3365 204.328 41.379 204.3C41.466 204.249 41.5635 204.219 41.664 204.211L50.5704 200.034L27.5741 186.737Z" fill="#BA68C8"/>
<path d="M41.468 205.85L39.0811 206.972C38.9891 207.015 38.8886 207.036 38.7872 207.034C38.6642 207.036 38.543 207.005 38.4354 206.946C38.3277 206.887 38.2372 206.8 38.1726 206.696L35.5631 202.456L26.9951 207.408L50.0537 220.714L41.468 205.85Z" fill="#BA68C8"/>
<g opacity="0.9">
<path d="M34.8239 201.245L26.2827 187.369V206.17L34.8239 201.245Z" fill="white"/>
<path d="M42.7594 205.244L51.2828 220.002V201.227L42.7594 205.244Z" fill="white"/>
<path d="M27.5741 186.737L36.3469 200.987C36.384 201.018 36.417 201.054 36.4449 201.094C36.4526 201.129 36.4526 201.165 36.4449 201.201L39.0544 205.44L41.2632 204.398C41.2976 204.361 41.3365 204.328 41.379 204.3C41.466 204.249 41.5635 204.219 41.664 204.211L50.5704 200.034L27.5741 186.737Z" fill="white"/>
<path d="M41.468 205.85L39.0811 206.972C38.9891 207.015 38.8886 207.036 38.7872 207.034C38.6642 207.036 38.543 207.005 38.4354 206.946C38.3277 206.887 38.2372 206.8 38.1726 206.696L35.5631 202.456L26.9951 207.408L50.0537 220.714L41.468 205.85Z" fill="white"/>
</g>
<path d="M64.304 43.3442L28.8834 22.8595C28.4763 22.5754 28.0041 22.3987 27.5106 22.3458C27.017 22.2929 26.5181 22.3654 26.06 22.5567C25.9632 22.6014 25.8708 22.6551 25.7839 22.717L18.0799 27.2325H18.1334C17.1626 27.7758 16.548 29.0673 16.548 30.8931V70.277C16.548 73.608 18.5698 77.4823 21.0725 78.9251L56.4931 99.4098C56.9416 99.737 57.4768 99.9243 58.0315 99.9481C58.5862 99.9718 59.1355 99.831 59.6103 99.5434L59.548 99.5879L67.1986 95.1347C68.1961 94.6092 68.8284 93.3534 68.8284 91.4386V51.9566C68.8284 48.6256 66.8423 44.7514 64.304 43.3442Z" fill="#BA68C8"/>
<path d="M67.5637 47.0492C66.8496 45.5211 65.72 44.2248 64.3039 43.3085L28.8833 22.8595C28.4762 22.5754 28.004 22.3987 27.5105 22.3458C27.0169 22.2929 26.518 22.3654 26.06 22.5567C25.9631 22.6014 25.8707 22.6551 25.7839 22.717L18.0799 27.2325C18.5501 26.9894 19.0782 26.8807 19.6062 26.9184C20.1342 26.9561 20.6415 27.1388 21.0724 27.4463L56.493 47.931C57.9573 48.8881 59.1164 50.245 59.8329 51.8408L67.5637 47.0492Z" fill="#BA68C8"/>
<path d="M61.0175 95.8917C61.0175 97.673 60.4475 98.911 59.548 99.4543L67.1985 95.0011C68.196 94.4756 68.8284 93.2198 68.8284 91.3049V51.9566C68.7907 50.2452 68.3578 48.5657 67.5637 47.0492L59.833 51.8052C60.5751 53.2769 60.9797 54.8956 61.0175 56.5434V95.8917Z" fill="#BA68C8"/>
<path opacity="0.3" d="M67.5637 47.0492C66.8496 45.5211 65.72 44.2248 64.3039 43.3085L28.8833 22.8595C28.4762 22.5754 28.004 22.3987 27.5105 22.3458C27.0169 22.2929 26.518 22.3654 26.06 22.5567C25.9631 22.6014 25.8707 22.6551 25.7839 22.717L18.0799 27.2325C18.5501 26.9894 19.0782 26.8807 19.6062 26.9184C20.1342 26.9561 20.6415 27.1388 21.0724 27.4463L56.493 47.931C57.9573 48.8881 59.1164 50.245 59.8329 51.8408L67.5637 47.0492Z" fill="black"/>
<path opacity="0.6" d="M61.0175 95.8917C61.0175 97.673 60.4475 98.911 59.548 99.4543L67.1985 95.0011C68.196 94.4756 68.8284 93.2198 68.8284 91.3049V51.9566C68.7907 50.2452 68.3578 48.5657 67.5637 47.0492L59.833 51.8052C60.5751 53.2769 60.9797 54.8956 61.0175 56.5434V95.8917Z" fill="black"/>
<path d="M49.4303 78.9696C48.0677 76.7252 46.6961 74.5164 45.3334 72.2542C45.1173 71.8257 44.8151 71.4464 44.4458 71.1399C44.0765 70.8335 43.648 70.6064 43.187 70.473C42.5279 70.3394 41.8688 70.188 41.1919 69.992C40.9509 69.8915 40.7481 69.7168 40.613 69.4933C38.3832 65.677 36.6105 61.6115 35.3316 57.3806C35.3043 57.2902 35.2966 57.195 35.3089 57.1013C35.3212 57.0077 35.3532 56.9177 35.4028 56.8373C35.8214 56.4187 36.2934 56.0357 36.7209 55.6617C37.1485 55.2876 37.3711 54.4237 37.0594 53.3015C36.4003 50.9235 35.768 48.5455 35.1089 46.1764C34.9814 45.5032 34.6788 44.8756 34.2316 44.3565C33.7845 43.8374 33.2085 43.4453 32.5617 43.2195C31.1254 42.8202 29.6006 42.8762 28.1976 43.3798C27.6543 43.5846 27.3693 44.0745 27.3604 44.9206C27.5919 46.5504 27.7433 48.1625 28.055 49.8191C30.252 61.7655 35.5364 72.75 43.9084 82.7726C44.127 83.105 44.4206 83.3813 44.7656 83.5794C45.1106 83.7774 45.4973 83.8916 45.8945 83.9127C47.2806 83.8797 48.6122 83.3666 49.6619 82.4609C50.4546 81.7484 50.3744 80.4837 49.4303 78.9696Z" fill="#BA68C8"/>
<path d="M49.3234 66.8303C49.1371 64.2685 48.431 61.7715 47.2482 59.4914C46.3651 57.7103 45.2413 56.059 43.9083 54.584C43.561 54.1922 43.267 54.0675 43.0889 54.3614C42.9108 54.6553 43.0889 55.0739 43.4274 55.4569L43.7747 55.8577C46.2364 58.6993 47.7878 62.2148 48.2279 65.9486C48.2235 66.2209 48.2504 66.4928 48.3081 66.759C48.4199 67.0653 48.5995 67.3424 48.8335 67.5695C49.0206 67.7031 49.2343 67.5695 49.3857 67.5695C49.3323 67.2044 49.3412 67.0173 49.3234 66.8303Z" fill="#BA68C8"/>
<path d="M41.2542 59.5182C42.3727 60.7484 43.0523 62.3143 43.1869 63.9714C43.2456 64.2233 43.3385 64.4661 43.463 64.6928C44.0063 65.1381 44.2735 64.9867 44.2735 64.4256C44.0831 62.3009 43.2043 60.2964 41.7708 58.7166C41.4324 58.3693 41.1563 58.2624 40.996 58.5563C40.9383 58.7241 40.9321 58.9054 40.9781 59.0767C41.0241 59.2481 41.1203 59.4019 41.2542 59.5182Z" fill="#BA68C8"/>
<g opacity="0.9">
<path d="M49.4303 78.9696C48.0677 76.7252 46.6961 74.5164 45.3334 72.2542C45.1173 71.8257 44.8151 71.4464 44.4458 71.1399C44.0765 70.8335 43.648 70.6064 43.187 70.473C42.5279 70.3394 41.8688 70.188 41.1919 69.992C40.9509 69.8915 40.7481 69.7168 40.613 69.4933C38.3832 65.677 36.6105 61.6115 35.3316 57.3806C35.3043 57.2902 35.2966 57.195 35.3089 57.1013C35.3212 57.0077 35.3532 56.9177 35.4028 56.8373C35.8214 56.4187 36.2934 56.0357 36.7209 55.6617C37.1485 55.2876 37.3711 54.4237 37.0594 53.3015C36.4003 50.9235 35.768 48.5455 35.1089 46.1764C34.9814 45.5032 34.6788 44.8756 34.2316 44.3565C33.7845 43.8374 33.2085 43.4453 32.5617 43.2195C31.1254 42.8202 29.6006 42.8762 28.1976 43.3798C27.6543 43.5846 27.3693 44.0745 27.3604 44.9206C27.5919 46.5504 27.7433 48.1625 28.055 49.8191C30.252 61.7655 35.5364 72.75 43.9084 82.7726C44.127 83.105 44.4206 83.3813 44.7656 83.5794C45.1106 83.7774 45.4973 83.8916 45.8945 83.9127C47.2806 83.8797 48.6122 83.3666 49.6619 82.4609C50.4546 81.7484 50.3744 80.4837 49.4303 78.9696Z" fill="white"/>
<path d="M49.3235 66.8303C49.1372 64.2685 48.4311 61.7715 47.2483 59.4914C46.3652 57.7103 45.2414 56.059 43.9084 54.584C43.5611 54.1922 43.2672 54.0675 43.0891 54.3614C42.9109 54.6553 43.0891 55.0739 43.4275 55.4569L43.7748 55.8577C46.2366 58.6993 47.788 62.2148 48.228 65.9486C48.2237 66.2209 48.2506 66.4928 48.3082 66.759C48.4201 67.0653 48.5997 67.3424 48.8337 67.5695C49.0207 67.7031 49.2345 67.5695 49.3859 67.5695C49.3324 67.2044 49.3413 67.0173 49.3235 66.8303Z" fill="white"/>
<path d="M41.2543 59.5182C42.3727 60.7484 43.0523 62.3143 43.187 63.9714C43.2456 64.2233 43.3385 64.4661 43.4631 64.6928C44.0064 65.1381 44.2736 64.9867 44.2736 64.4256C44.0831 62.3009 43.2044 60.2964 41.7709 58.7166C41.4324 58.3693 41.1563 58.2624 40.996 58.5563C40.9384 58.7241 40.9321 58.9054 40.9781 59.0767C41.0242 59.2481 41.1203 59.4019 41.2543 59.5182Z" fill="white"/>
</g>
<path d="M246.038 19.7244L254.384 24.4715V21.5146C254.384 21.3098 254.384 21.096 254.384 20.8912C254.384 20.6863 254.384 20.4904 254.384 20.2944V20.1876C254.687 16.2777 257.652 14.7725 261.268 16.8655C262.905 17.8724 264.308 19.2176 265.383 20.811C266.194 15.4672 270.531 13.579 275.777 16.5983C281.602 19.9649 286.322 28.1766 286.322 34.8742V41.1977C286.314 41.7035 286.438 42.2026 286.684 42.645C286.929 43.0874 287.287 43.4575 287.72 43.7182L292.637 46.5949C293.698 47.224 294.577 48.1178 295.189 49.1888C295.801 50.2597 296.125 51.4712 296.128 52.7047C296.128 53.2165 295.993 53.7192 295.737 54.1623C295.481 54.6055 295.113 54.9733 294.67 55.2289C294.226 55.4844 293.724 55.6186 293.212 55.618C292.7 55.6173 292.198 55.4819 291.755 55.2252L246.163 28.8713C244.954 28.1689 243.949 27.1622 243.249 25.9513C242.549 24.7404 242.178 23.3675 242.173 21.9688C242.173 21.5161 242.291 21.0712 242.517 20.6788C242.743 20.2863 243.067 19.9601 243.459 19.7327C243.85 19.5054 244.295 19.385 244.748 19.3835C245.2 19.3821 245.645 19.4996 246.038 19.7244Z" fill="#E6E6E6"/>
<path d="M309.657 18.4864L315.722 21.9688V19.7957C315.722 19.6443 315.722 19.4929 315.722 19.3415C315.722 19.19 315.722 19.0475 315.722 18.905V18.8516C315.944 16.0105 318.1 14.915 320.727 16.438C321.917 17.167 322.937 18.1417 323.72 19.2969C324.316 15.4316 327.469 14.0333 331.281 16.2331C335.521 18.6824 338.95 24.6318 338.95 29.5214V34.126C338.953 34.487 339.05 34.8409 339.231 35.1532C339.412 35.4654 339.671 35.7253 339.983 35.9073L343.545 38.0003C344.321 38.4562 344.963 39.1072 345.408 39.8885C345.853 40.6698 346.086 41.5542 346.084 42.4535C346.083 42.8218 345.987 43.1837 345.804 43.5033C345.621 43.823 345.357 44.0894 345.04 44.2764C344.723 44.4634 344.362 44.5645 343.994 44.5697C343.625 44.5749 343.262 44.484 342.94 44.306L309.746 25.1395C308.866 24.6306 308.136 23.8996 307.628 23.0195C307.12 22.1395 306.852 21.1414 306.851 20.1252C306.85 19.7963 306.936 19.473 307.1 19.1877C307.263 18.9023 307.498 18.6648 307.782 18.4989C308.066 18.333 308.389 18.2445 308.718 18.2424C309.047 18.2402 309.37 18.3243 309.657 18.4864Z" fill="#E6E6E6"/>
</svg>
