<svg width="1440" height="940" viewBox="0 0 1440 940" fill="none" xmlns="http://www.w3.org/2000/svg">
<rect x="-100" y="79.7471" width="233.165" height="73.1797" rx="36.5898" transform="rotate(-20 -100 79.7471)" fill="#ECC5FB" fill-opacity="0.29"/>
<rect x="96.078" y="365.428" width="221.84" height="73.1797" rx="36.5898" transform="rotate(-20 96.078 365.428)" fill="#ECC5FB" fill-opacity="0.29"/>
<rect x="557.39" y="147.079" width="340.696" height="73.1797" rx="36.5898" transform="rotate(-20 557.39 147.079)" fill="#ECC5FB" fill-opacity="0.29"/>
<rect x="149.144" y="834.386" width="452.697" height="73.1797" rx="36.5898" transform="rotate(-20 149.144 834.386)" fill="#ECC5FB" fill-opacity="0.29"/>
<rect x="690.16" y="480.656" width="172.8" height="73.1797" rx="36.5898" transform="rotate(-20 690.16 480.656)" fill="#ECC5FB" fill-opacity="0.29"/>
<rect x="1134.01" y="215.716" width="196.368" height="73.1797" rx="36.5898" transform="rotate(-20 1134.01 215.716)" fill="#ECC5FB" fill-opacity="0.29"/>
<rect x="1296.21" y="533.02" width="232.342" height="73.1797" rx="36.5898" transform="rotate(-20 1296.21 533.02)" fill="#ECC5FB" fill-opacity="0.29"/>
<rect x="1082" y="933.747" width="278.324" height="73.1797" rx="36.5898" transform="rotate(-20 1082 933.747)" fill="#ECC5FB" fill-opacity="0.29"/>
</svg>
