<svg width="80" height="65" viewBox="0 0 80 65" fill="none" xmlns="http://www.w3.org/2000/svg">
<g clip-path="url(#clip0_3_774)">
<path d="M7.67676 64.5988C5.45454 64.5988 3.55151 63.8124 1.96767 62.2395C0.383832 60.6667 -0.406739 58.7782 -0.404046 56.5741V8.42594C-0.404046 6.21915 0.387874 4.32934 1.97171 2.7565C3.55555 1.18366 5.45723 0.398577 7.67676 0.401252H72.3232C74.5455 0.401252 76.4485 1.18767 78.0323 2.76051C79.6162 4.33335 80.4067 6.22183 80.404 8.42594V56.5741C80.404 58.7809 79.6121 60.6707 78.0283 62.2435C76.4444 63.8164 74.5428 64.6015 72.3232 64.5988H7.67676ZM40 35.8102C40.3367 35.8102 40.6909 35.7594 41.0626 35.6577C41.4343 35.5561 41.7872 35.4063 42.1212 35.2084L70.7071 17.4537C71.2458 17.1194 71.6498 16.7007 71.9192 16.1979C72.1886 15.695 72.3232 15.1439 72.3232 14.5448C72.3232 13.2073 71.7508 12.2042 70.6061 11.5355C69.4613 10.8668 68.2828 10.9002 67.0707 11.6358L40 28.4877L12.9293 11.6358C11.7172 10.9002 10.5387 10.8842 9.39394 11.5877C8.24915 12.2912 7.67676 13.2769 7.67676 14.5448C7.67676 15.2135 7.81144 15.7993 8.0808 16.3022C8.35016 16.8051 8.7542 17.1889 9.29292 17.4537L37.8788 35.2084C38.2155 35.409 38.5697 35.5601 38.9414 35.6617C39.3131 35.7634 39.666 35.8129 40 35.8102Z" fill="#17052D"/>
</g>
<defs>
<clipPath id="clip0_3_774">
<rect width="80" height="65" fill="white"/>
</clipPath>
</defs>
</svg>
