<svg width="80" height="80" viewBox="0 0 80 80" fill="none" xmlns="http://www.w3.org/2000/svg">
<g clip-path="url(#clip0_3_776)">
<path d="M40 0C62.1 0 80 17.9 80 40C79.9979 48.381 77.3675 56.5503 72.4792 63.3581C67.5909 70.1659 60.6907 75.2693 52.75 77.95C50.75 78.35 50 77.1 50 76.05C50 74.7 50.05 70.4 50.05 65.05C50.05 61.3 48.8 58.9 47.35 57.65C56.25 56.65 65.6 53.25 65.6 37.9C65.6 33.5 64.05 29.95 61.5 27.15C61.9 26.15 63.3 22.05 61.1 16.55C61.1 16.55 57.75 15.45 50.1 20.65C46.9 19.75 43.5 19.3 40.1 19.3C36.7 19.3 33.3 19.75 30.1 20.65C22.45 15.5 19.1 16.55 19.1 16.55C16.9 22.05 18.3 26.15 18.7 27.15C16.15 29.95 14.6 33.55 14.6 37.9C14.6 53.2 23.9 56.65 32.8 57.65C31.65 58.65 30.6 60.4 30.25 63C27.95 64.05 22.2 65.75 18.6 59.7C17.85 58.5 15.6 55.55 12.45 55.6C9.10001 55.65 11.1 57.5 12.5 58.25C14.2 59.2 16.15 62.75 16.6 63.9C17.4 66.15 20 70.45 30.05 68.6C30.05 71.95 30.1 75.1 30.1 76.05C30.1 77.1 29.35 78.3 27.35 77.95C19.3832 75.2982 12.4537 70.2051 7.54445 63.3932C2.63523 56.5813 -0.0044024 48.3966 5.51156e-06 40C5.51156e-06 17.9 17.9 0 40 0Z" fill="#17052D"/>
</g>
<defs>
<clipPath id="clip0_3_776">
<rect width="80" height="80" fill="white"/>
</clipPath>
</defs>
</svg>
