<svg width="446" height="332" viewBox="0 0 446 332" fill="none" xmlns="http://www.w3.org/2000/svg">
<path d="M445.348 291.614H0V291.837H445.348V291.614Z" fill="#EBEBEB"/>
<path d="M400.724 305.945H371.224V306.168H400.724V305.945Z" fill="#EBEBEB"/>
<path d="M295.016 308.368H287.276V308.591H295.016V308.368Z" fill="#EBEBEB"/>
<path d="M370.334 297.68H353.241V297.902H370.334V297.68Z" fill="#EBEBEB"/>
<path d="M85.1951 299.176H46.7259V299.399H85.1951V299.176Z" fill="#EBEBEB"/>
<path d="M98.7693 299.176H93.1312V299.399H98.7693V299.176Z" fill="#EBEBEB"/>
<path d="M200.54 302.935H117.1V303.157H200.54V302.935Z" fill="#EBEBEB"/>
<path d="M211.095 251.889H39.1105C37.7631 251.886 36.4718 251.35 35.52 250.396C34.5681 249.443 34.0335 248.15 34.0335 246.803V5.04134C34.0452 3.70176 34.585 2.42089 35.5356 1.47697C36.4862 0.533044 37.7708 0.00229478 39.1105 0H211.095C212.444 0 213.737 0.535832 214.691 1.48962C215.645 2.4434 216.181 3.73702 216.181 5.08587V246.803C216.181 248.152 215.645 249.445 214.691 250.399C213.737 251.353 212.444 251.889 211.095 251.889ZM39.1105 0.17814C37.8222 0.180499 36.5875 0.69391 35.6774 1.60568C34.7673 2.51745 34.2562 3.75308 34.2562 5.04134V246.803C34.2562 248.091 34.7673 249.327 35.6774 250.239C36.5875 251.15 37.8222 251.664 39.1105 251.666H211.095C212.384 251.664 213.62 251.151 214.531 250.239C215.443 249.328 215.956 248.092 215.958 246.803V5.04134C215.956 3.75226 215.443 2.51666 214.531 1.60514C213.62 0.693621 212.384 0.180494 211.095 0.17814H39.1105Z" fill="#EBEBEB"/>
<path d="M403.761 251.889H231.768C230.42 251.886 229.128 251.35 228.174 250.397C227.221 249.443 226.685 248.151 226.682 246.803V5.04134C226.696 3.70094 227.238 2.42009 228.19 1.47641C229.142 0.532733 230.428 0.00226975 231.768 0H403.761C405.1 0.00463562 406.382 0.536421 407.331 1.48009C408.279 2.42377 408.818 3.70329 408.83 5.04134V246.803C408.83 248.149 408.296 249.44 407.346 250.393C406.396 251.346 405.107 251.884 403.761 251.889ZM231.768 0.17814C230.479 0.180494 229.243 0.693621 228.332 1.60514C227.42 2.51666 226.907 3.75226 226.905 5.04134V246.803C226.907 248.092 227.42 249.328 228.332 250.239C229.243 251.151 230.479 251.664 231.768 251.666H403.761C405.051 251.664 406.286 251.151 407.198 250.239C408.109 249.328 408.622 248.092 408.625 246.803V5.04134C408.622 3.75226 408.109 2.51666 407.198 1.60514C406.286 0.693621 405.051 0.180494 403.761 0.17814H231.768Z" fill="#EBEBEB"/>
<path d="M254.543 2.92148C241.209 4.876 228.845 11.0284 219.245 20.486C208.957 30.6399 202.607 44.1518 192.301 54.3325C182.091 64.4402 169.327 71.5854 155.373 75.0055C143.892 77.7934 133.017 75.629 121.669 79.0315C103.523 84.4204 87.3202 94.937 75.0093 109.316C62.6985 123.696 54.8039 141.325 52.2749 160.085C50.1462 175.708 51.9454 192.15 59.4005 206.071C65.314 217.026 74.4189 225.922 85.5068 231.581C103.873 240.862 125.401 240.265 145.834 242.688C164.954 244.944 183.641 249.992 201.297 257.669C223.369 267.289 243.828 281.015 267.138 287.062C295.034 294.295 326.405 289.245 349.162 271.555C371.919 253.866 384.683 223.289 378.902 195.054C375.339 177.729 365.542 162.392 359.636 145.745C354.539 131.427 352.317 116.245 353.099 101.067C353.838 86.7627 357.223 72.1464 353.482 58.3139C350.676 47.8838 343.996 38.87 336.318 31.2723C316.144 11.2673 283.535 -1.63889 254.543 2.92148Z" fill="#07010E"/>
<path d="M188.81 108.567H184.258L183.127 104.995L182.023 108.567H177.346L181.034 111.756L179.27 117.465L183.127 113.555L187.082 117.465L185.247 111.693L188.81 108.567Z" fill="#17052D"/>
<path d="M271.582 254.267H267.022L265.891 250.695L264.786 254.267H260.11L263.797 257.456L262.034 263.165L265.891 259.255L269.845 263.165L268.019 257.393L271.582 254.267Z" fill="#17052D"/>
<path d="M189.166 170.675H187.215L186.734 169.143L186.262 170.675H184.258L185.835 172.038L185.087 174.478L186.734 172.813L188.427 174.478L187.643 172.011L189.166 170.675Z" fill="#17052D"/>
<path d="M311.476 157.056H309.526L309.045 155.524L308.573 157.056H306.569L308.145 158.419L307.397 160.86L309.045 159.185L310.737 160.86L309.953 158.392L311.476 157.056Z" fill="#17052D"/>
<path d="M190.244 149.281H188.302L187.812 147.749L187.34 149.281H185.345L186.921 150.643L186.164 153.084L187.812 151.418L189.504 153.084L188.721 150.617L190.244 149.281Z" fill="#17052D"/>
<path d="M121.954 155.881H120.003L119.523 154.358L119.05 155.881H117.046L118.623 157.243L117.875 159.693L119.523 158.018L121.215 159.693L120.431 157.226L121.954 155.881Z" fill="#17052D"/>
<path d="M129.961 193.032H128.02L127.53 191.5L127.058 193.032H125.063L126.639 194.394L125.882 196.835L127.53 195.16L129.222 196.835L128.438 194.368L129.961 193.032Z" fill="#17052D"/>
<path d="M302.721 118.703H300.77L300.289 117.171L299.817 118.703H297.813L299.39 120.066L298.642 122.506L300.289 120.841L301.982 122.506L301.198 120.039L302.721 118.703Z" fill="#17052D"/>
<path d="M288.247 66.6775H286.84L286.492 65.5641L286.145 66.6775H284.702L285.842 67.6573L285.299 69.4209L286.492 68.2184L287.713 69.4209L287.143 67.6395L288.247 66.6775Z" fill="#17052D"/>
<path d="M206.392 119.024H204.985L204.637 117.91L204.29 119.024H202.847L203.987 120.003L203.444 121.767L204.637 120.565L205.858 121.767L205.297 119.986L206.392 119.024Z" fill="#17052D"/>
<path d="M153.574 130.407H152.167L151.81 129.302L151.472 130.407H150.029L151.169 131.387L150.626 133.159L151.81 131.948L153.031 133.159L152.469 131.378L153.574 130.407Z" fill="#17052D"/>
<path d="M229.515 66.5439H228.107L227.76 65.4394L227.413 66.5439H225.97L227.11 67.5237L226.566 69.2872L227.76 68.0848L228.98 69.2872L228.41 67.5059L229.515 66.5439Z" fill="#17052D"/>
<path d="M335.16 135.377H333.753L333.405 134.272L333.058 135.377H331.615L332.755 136.366L332.212 138.129L333.405 136.918L334.626 138.129L334.056 136.348L335.16 135.377Z" fill="#17052D"/>
<path d="M298.499 91.7328H297.101L296.744 90.6283L296.406 91.7328H294.954L296.103 92.7215L295.551 94.485L296.744 93.2737L297.965 94.485L297.403 92.7037L298.499 91.7328Z" fill="#17052D"/>
<path d="M342.018 162.926H340.611L340.255 161.822L339.916 162.926H338.473L339.614 163.915L339.07 165.678L340.255 164.467L341.484 165.678L340.914 163.888L342.018 162.926Z" fill="#17052D"/>
<path d="M309.57 218.229H308.163L307.807 217.125L307.468 218.229H306.025L307.165 219.209L306.622 220.973L307.807 219.77L309.027 220.973L308.466 219.191L309.57 218.229Z" fill="#17052D"/>
<path d="M285.646 159.292H284.239L283.892 158.188L283.544 159.292H282.101L283.241 160.281L282.698 162.044L283.892 160.842L285.112 162.044L284.542 160.263L285.646 159.292Z" fill="#17052D"/>
<path d="M205.608 167.896H204.201L203.845 166.792L203.506 167.896H202.063L203.203 168.885L202.66 170.648L203.845 169.446L205.074 170.648L204.504 168.867L205.608 167.896Z" fill="#17052D"/>
<path d="M142.084 235.402H140.133L139.652 233.87L139.171 235.402H137.176L138.753 236.765L138.004 239.205L139.652 237.531L141.345 239.205L140.561 236.738L142.084 235.402Z" fill="#17052D"/>
<path d="M305.17 279.358H303.229L302.739 277.835L302.267 279.358H300.263L301.848 280.721L301.091 283.161L302.739 281.496L304.431 283.161L303.647 280.694L305.17 279.358Z" fill="#17052D"/>
<path d="M187.385 196.22H185.434L184.953 194.688L184.481 196.22H182.477L184.062 197.583L183.305 200.024L184.953 198.358L186.645 200.024L185.862 197.556L187.385 196.22Z" fill="#17052D"/>
<path d="M332.191 241.355C336.327 239.642 338.291 234.901 336.578 230.765C334.865 226.629 330.123 224.665 325.988 226.378C321.852 228.092 319.888 232.833 321.601 236.969C323.314 241.104 328.056 243.068 332.191 241.355Z" fill="#17052D"/>
<path d="M254.516 42.4951C254.516 43.4006 254.248 44.2857 253.745 45.0386C253.242 45.7915 252.527 46.3783 251.69 46.7248C250.854 47.0713 249.933 47.162 249.045 46.9853C248.157 46.8087 247.341 46.3726 246.701 45.7324C246.061 45.0921 245.625 44.2763 245.448 43.3883C245.271 42.5002 245.362 41.5797 245.709 40.7431C246.055 39.9066 246.642 39.1916 247.395 38.6885C248.148 38.1854 249.033 37.9169 249.938 37.9169C251.152 37.9169 252.317 38.3993 253.175 39.2578C254.034 40.1164 254.516 41.2809 254.516 42.4951Z" fill="#17052D"/>
<path d="M88.7935 141.318L85.0258 142.511C83.9447 142.326 82.833 142.531 81.8886 143.089C80.9442 143.646 80.2284 144.521 79.8687 145.558L76.9561 148.274C76.8935 148.332 76.8523 148.409 76.8394 148.493C76.8265 148.577 76.8427 148.663 76.8853 148.737C76.9278 148.81 76.9942 148.867 77.0735 148.898C77.1527 148.929 77.2402 148.932 77.3213 148.907L81.0979 147.766C82.2021 147.994 83.3515 147.809 84.3283 147.246C85.3051 146.683 86.0413 145.781 86.3975 144.711L89.2121 141.986C89.2812 141.923 89.3259 141.837 89.3384 141.744C89.351 141.651 89.3306 141.557 89.2809 141.478C89.2311 141.398 89.1551 141.339 89.0661 141.31C88.977 141.28 88.8806 141.283 88.7935 141.318Z" fill="#17052D"/>
<path d="M222.674 331.838C318.052 331.838 395.371 327.324 395.371 321.755C395.371 316.187 318.052 311.672 222.674 311.672C127.296 311.672 49.9769 316.187 49.9769 321.755C49.9769 327.324 127.296 331.838 222.674 331.838Z" fill="#07010E"/>
<path d="M361.614 265.463L373.968 257.5L370.138 267.957H360.901L361.614 265.463Z" fill="#263238"/>
<path opacity="0.2" d="M361.614 265.463L373.968 257.5L370.138 267.957H360.901L361.614 265.463Z" fill="#17052D"/>
<path opacity="0.4" d="M361.863 265.579L373.834 257.865L370.138 267.957H361.124L361.863 265.579Z" fill="#17052D"/>
<path d="M373.994 272.793L383.516 250.499H377.406L368.632 273.203L373.994 272.793Z" fill="#263238"/>
<path opacity="0.2" d="M373.994 272.793L383.516 250.499H377.406L368.632 273.203L373.994 272.793Z" fill="#17052D"/>
<path opacity="0.4" d="M373.994 272.793L383.436 250.686H377.504L368.819 273.185L373.994 272.793Z" fill="#17052D"/>
<path d="M374.368 272.713L383.819 250.357L389.092 250.223L379.998 271.912L374.368 272.713Z" fill="#263238"/>
<path opacity="0.2" d="M374.368 272.713L383.819 250.357L389.092 250.223L379.998 271.912L374.368 272.713Z" fill="#17052D"/>
<path opacity="0.4" d="M374.475 272.696L383.961 250.499L389.038 250.357L379.998 271.912L374.475 272.696Z" fill="#17052D"/>
<path d="M389.394 250.09L394.454 249.983L385.386 271.012L380.327 271.742L389.394 250.09Z" fill="#263238"/>
<path opacity="0.2" d="M389.394 250.09L394.454 249.983L385.386 271.012L380.327 271.742L389.394 250.09Z" fill="#17052D"/>
<path opacity="0.4" d="M389.484 250.223L394.409 250.081L385.386 271.012L380.443 271.725L389.484 250.223Z" fill="#17052D"/>
<path d="M394.774 249.983L399.21 249.849L390.499 270.273L385.654 270.985L394.774 249.983Z" fill="#263238"/>
<path opacity="0.2" d="M394.774 249.983L399.21 249.849L390.499 270.273L385.654 270.985L394.774 249.983Z" fill="#17052D"/>
<path opacity="0.4" d="M394.872 250.081L399.183 249.92L390.499 270.273L385.796 270.959L394.872 250.081Z" fill="#17052D"/>
<path d="M356.43 268.028L348.636 289.467L363.217 285.424L370.432 264.644L356.43 268.028Z" fill="#B555F0"/>
<path opacity="0.2" d="M356.43 268.028L348.636 289.467L363.217 285.424L370.432 264.644L356.43 268.028Z" fill="black"/>
<path d="M336.077 256.129L356.43 268.028L348.636 289.467L328.8 276.285L336.077 256.129Z" fill="#B555F0"/>
<path opacity="0.05" d="M336.077 256.129L356.43 268.028L348.636 289.467L328.8 276.285L336.077 256.129Z" fill="black"/>
<path d="M336.077 256.129L351.095 254.971L370.432 264.644L356.43 268.028L336.077 256.129Z" fill="#B555F0"/>
<path opacity="0.4" d="M336.077 256.129L351.095 254.971L370.432 264.644L356.43 268.028L336.077 256.129Z" fill="#17052D"/>
<path d="M361.997 248.184L362.567 248.478L357.73 261.473L357.009 261.25L361.997 248.184Z" fill="#263238"/>
<path opacity="0.4" d="M361.997 248.184L362.219 248.299L357.249 261.321L357.009 261.25L361.997 248.184Z" fill="#17052D"/>
<path opacity="0.2" d="M362.567 248.477L362.219 248.299L357.249 261.321L357.73 261.473L362.567 248.477Z" fill="#17052D"/>
<path d="M291.845 253.813L281.816 286.43L293.36 284.631L303.54 253.385L291.845 253.813Z" fill="#263238"/>
<path opacity="0.2" d="M291.845 253.813L281.816 286.43L293.36 284.631L303.54 253.385L291.845 253.813Z" fill="#17052D"/>
<path opacity="0.4" d="M292.024 254L282.066 286.394L293.36 284.631L303.451 253.644L292.024 254Z" fill="#17052D"/>
<path d="M304.039 253.385L294.01 284.631L304.903 283.036L314.861 252.949L304.039 253.385Z" fill="#263238"/>
<path opacity="0.2" d="M304.039 253.385L294.01 284.631L304.903 283.036L314.861 252.949L304.039 253.385Z" fill="#17052D"/>
<path opacity="0.4" d="M304.226 253.644L294.268 284.586L304.903 283.036L314.808 253.136L304.226 253.644Z" fill="#17052D"/>
<path d="M315.297 252.958L305.375 282.787L315.297 281.522L325.22 252.699L315.297 252.958Z" fill="#263238"/>
<path opacity="0.2" d="M315.297 252.958L305.375 282.787L315.297 281.522L325.22 252.699L315.297 252.958Z" fill="#17052D"/>
<path opacity="0.4" d="M315.431 253.136L305.642 282.751L315.297 281.522L325.131 252.949L315.431 253.136Z" fill="#17052D"/>
<path d="M325.621 252.441L315.591 281.38L325.006 280.044L334.741 252.12L325.621 252.441Z" fill="#263238"/>
<path opacity="0.2" d="M325.621 252.441L315.591 281.38L325.006 280.044L334.741 252.12L325.621 252.441Z" fill="#17052D"/>
<path opacity="0.4" d="M325.728 252.628L315.814 281.353L325.006 280.044L334.679 252.299L325.728 252.628Z" fill="#17052D"/>
<path d="M343.354 267.743L342.17 271.172L327.491 274.094L332.622 259.807L343.354 267.743Z" fill="#263238"/>
<path opacity="0.2" d="M343.354 267.743L342.17 271.172L327.491 274.094L332.622 259.807L343.354 267.743Z" fill="#17052D"/>
<path opacity="0.4" d="M343.247 268.028L342.17 271.172L327.758 274.04L332.728 260.092L343.247 268.028Z" fill="#17052D"/>
<path d="M370.752 266.149L356.759 292.22C353.018 290.438 352.992 279.83 355.78 273.738C359.227 267.823 366.878 264.92 370.752 266.149Z" fill="#263238"/>
<g opacity="0.2">
<path d="M357.882 290.118L357.276 291.249C353.811 287.98 354.105 278.61 355.78 273.738C353.143 284.185 357.882 290.118 357.882 290.118Z" fill="black"/>
</g>
<g opacity="0.3">
<path d="M370.752 266.149L356.759 292.22C353.018 290.438 352.992 279.83 355.78 273.738C359.227 267.823 366.878 264.92 370.752 266.149Z" fill="#17052D"/>
</g>
<path opacity="0.2" d="M356.652 272.927C362.184 268.1 366.121 267.342 369.585 268.322L370.147 267.271C365.862 266.737 361.863 267.77 356.652 272.927Z" fill="#17052D"/>
<path d="M358.354 276C354.257 283.126 353.348 290.251 356.323 291.961C359.298 293.671 365.025 289.289 369.122 282.217C373.219 275.145 374.128 267.966 371.153 266.265C368.178 264.563 362.451 268.91 358.354 276Z" fill="#B555F0"/>
<path opacity="0.4" d="M358.354 276C354.257 283.126 353.348 290.251 356.323 291.961C359.298 293.671 365.025 289.289 369.122 282.217C373.219 275.145 374.128 267.966 371.153 266.265C368.178 264.563 362.451 268.91 358.354 276Z" fill="#17052D"/>
<path opacity="0.2" d="M358.371 275.733C357.582 277.136 356.924 278.609 356.403 280.133C356.185 280.711 356.164 281.346 356.344 281.937C356.525 282.529 356.896 283.044 357.401 283.402C358.826 284.221 361.578 282.128 363.546 278.726C365.515 275.323 365.951 271.885 364.526 271.057C363.689 270.576 362.077 270.887 360.91 272.223C359.957 273.312 359.108 274.487 358.371 275.733Z" fill="black"/>
<path d="M365.862 278.147L362.139 276.641L360.028 274.334C359.519 274.493 359.085 274.83 358.805 275.283C358.525 275.737 358.419 276.276 358.505 276.802L361.373 277.746L364.223 280.961L365.862 278.147Z" fill="#263238"/>
<path opacity="0.2" d="M365.862 278.147L362.139 276.641L360.028 274.334C359.519 274.493 359.085 274.83 358.805 275.283C358.525 275.737 358.419 276.276 358.505 276.802L361.373 277.746L364.223 280.961L365.862 278.147Z" fill="#17052D"/>
<path d="M364.446 279.224C363.992 280.017 363.894 280.801 364.223 281.006C364.553 281.211 365.185 280.712 365.64 279.928C366.094 279.144 366.192 278.351 365.862 278.147C365.533 277.942 364.9 278.44 364.446 279.224Z" fill="#263238"/>
<path opacity="0.4" d="M364.446 279.224C363.992 280.017 363.894 280.801 364.223 281.006C364.553 281.211 365.185 280.712 365.64 279.928C366.094 279.144 366.192 278.351 365.862 278.147C365.533 277.942 364.9 278.44 364.446 279.224Z" fill="#17052D"/>
<path opacity="0.2" d="M358.835 275.279C358.573 275.754 358.458 276.296 358.505 276.837L361.373 277.781L364.223 280.997C363.867 280.73 364.116 279.661 364.526 279.1C364.526 279.1 363.404 278.396 358.835 275.279Z" fill="black"/>
<path opacity="0.2" d="M365.613 278.12L362.041 276.775L359.823 274.45L359.681 274.504L361.979 276.802L365.408 278.191L365.613 278.12Z" fill="#17052D"/>
<g opacity="0.2">
<path d="M364.624 279.331C364.241 279.999 364.152 280.676 364.428 280.836C364.704 280.997 365.257 280.587 365.64 279.946C366.023 279.304 366.112 278.601 365.836 278.432C365.559 278.262 365.007 278.654 364.624 279.331Z" fill="black"/>
<path opacity="0.4" d="M364.624 279.331C364.241 279.999 364.152 280.676 364.428 280.836C364.704 280.997 365.257 280.587 365.64 279.946C366.023 279.304 366.112 278.601 365.836 278.432C365.559 278.262 365.007 278.654 364.624 279.331Z" fill="black"/>
</g>
<path d="M358.728 290.313L358.906 290.599L369.113 285.62L368.98 285.352L358.728 290.313Z" fill="#263238"/>
<path opacity="0.1" d="M358.728 290.313L358.906 290.599L369.113 285.62L368.98 285.352L358.728 290.313Z" fill="#17052D"/>
<path d="M372.053 271.386H372.32L372.605 280.329H372.249L372.053 271.386Z" fill="#263238"/>
<path opacity="0.1" d="M372.053 271.386H372.32L372.605 280.329H372.249L372.053 271.386Z" fill="#17052D"/>
<path d="M360.073 273.568L372.605 280.329L372.453 280.534L359.841 273.8L360.073 273.568Z" fill="#263238"/>
<path opacity="0.1" d="M360.073 273.568L372.605 280.329L372.453 280.534L359.841 273.8L360.073 273.568Z" fill="#17052D"/>
<path d="M359.529 274.432L359.743 274.165L369.202 285.228L369.06 285.441L359.529 274.432Z" fill="#263238"/>
<path opacity="0.1" d="M359.529 274.432L359.743 274.165L369.202 285.228L369.06 285.441L359.529 274.432Z" fill="#17052D"/>
<path d="M369.728 282.52C368.837 284.114 368.606 285.718 369.274 286.083C369.942 286.448 371.233 285.495 372.151 283.9C373.068 282.306 373.273 280.703 372.605 280.338C371.937 279.973 370.654 280.926 369.728 282.52Z" fill="#263238"/>
<path opacity="0.2" d="M369.728 282.52C368.837 284.114 368.606 285.718 369.274 286.083C369.942 286.448 371.233 285.495 372.151 283.9C373.068 282.306 373.273 280.703 372.605 280.338C371.937 279.973 370.654 280.926 369.728 282.52Z" fill="#17052D"/>
<path opacity="0.1" d="M369.977 282.662C369.149 284.096 368.971 285.53 369.568 285.878C370.164 286.225 371.349 285.343 372.151 283.918C372.952 282.493 373.157 281.041 372.56 280.694C371.964 280.347 370.806 281.228 369.977 282.662Z" fill="black"/>
<path opacity="0.2" d="M342.17 271.172L328.8 276.285L329.78 273.568L342.17 271.172Z" fill="black"/>
<path d="M353.811 91.0826C366.911 91.0826 377.53 80.4631 377.53 67.3633C377.53 54.2636 366.911 43.6441 353.811 43.6441C340.711 43.6441 330.092 54.2636 330.092 67.3633C330.092 80.4631 340.711 91.0826 353.811 91.0826Z" fill="#B555F0"/>
<path opacity="0.4" d="M353.811 91.0826C366.911 91.0826 377.53 80.4631 377.53 67.3633C377.53 54.2636 366.911 43.6441 353.811 43.6441C340.711 43.6441 330.092 54.2636 330.092 67.3633C330.092 80.4631 340.711 91.0826 353.811 91.0826Z" fill="#17052D"/>
<path opacity="0.4" d="M353.811 91.0826C366.911 91.0826 377.53 80.4631 377.53 67.3633C377.53 54.2636 366.911 43.6441 353.811 43.6441C340.711 43.6441 330.092 54.2636 330.092 67.3633C330.092 80.4631 340.711 91.0826 353.811 91.0826Z" fill="#17052D"/>
<path opacity="0.2" d="M332.915 56.1139C332.381 58.7859 334.234 59.9082 338.304 59.6766C347.953 59.1376 357.383 56.5956 365.996 52.2126C367.884 50.9211 368.071 49.4514 367.359 47.8838C378.875 57.0313 379.677 69.2605 374.662 78.6574C373.441 80.5083 371.61 81.8729 369.487 82.5141C363.339 84.9348 356.891 86.5138 350.32 87.2081C344.236 88.0988 340.665 87.6979 339.293 86.1125C328.916 78.0695 328.043 65.7334 332.915 56.1139Z" fill="#17052D"/>
<path opacity="0.2" d="M330.092 67.3633C330.068 71.9288 331.435 76.3934 334.011 80.1626C335.258 81.944 339.293 82.3003 345.59 81.4185C353.774 80.5754 361.804 78.6093 369.452 75.5756C373.62 73.9367 376.381 71.8435 377.566 69.216C377.843 65.0064 377.007 60.7981 375.143 57.0135C374.778 60.2912 372.534 63.0078 368.018 65.0297C359.187 68.3363 350.002 70.605 340.647 71.7901C334.688 72.4759 330.582 71.4962 330.092 67.3633Z" fill="#17052D"/>
<path opacity="0.1" d="M344.272 46.4854C346.534 45.6111 348.88 44.9694 351.273 44.5704C354.417 44.2498 354.96 44.7842 354.613 45.6125C353.678 46.5699 352.573 47.3434 351.353 47.8927C349.456 48.7148 347.443 49.2348 345.385 49.4336C343.951 49.496 342.428 49.5316 341.564 48.8725C341.137 48.0976 342.419 47.2781 344.272 46.4854Z" fill="black"/>
<path d="M392.12 55.713C390.935 52.0612 383.142 51.0369 372.266 52.4709C373.238 53.6413 374.08 54.9135 374.778 56.2653C378.67 56.4167 381.245 57.343 381.806 59.0621C383.177 63.3107 371.768 70.8103 356.314 75.8071C340.86 80.8039 327.224 81.4274 325.852 77.1788C325.255 75.3974 326.689 73.1974 330.11 70.6322C330.065 70.6322 330.35 70.4451 330.306 70.4719C330.116 68.9954 330.062 67.5047 330.145 66.0184C320.223 71.3091 314.309 76.8225 315.511 80.5278C317.4 86.3441 336.077 85.5068 357.24 78.6485C378.403 71.7901 394.008 61.5293 392.12 55.713Z" fill="#B555F0"/>
<path opacity="0.3" d="M392.12 55.713C390.935 52.0612 383.142 51.0369 372.266 52.4709C373.238 53.6413 374.08 54.9135 374.778 56.2653C378.67 56.4167 381.245 57.343 381.806 59.0621C383.177 63.3107 371.768 70.8103 356.314 75.8071C340.86 80.8039 327.224 81.4274 325.852 77.1788C325.255 75.3974 326.689 73.1974 330.11 70.6322C330.065 70.6322 330.35 70.4451 330.306 70.4719C330.116 68.9954 330.062 67.5047 330.145 66.0184C320.223 71.3091 314.309 76.8225 315.511 80.5278C317.4 86.3441 336.077 85.5068 357.24 78.6485C378.403 71.7901 394.008 61.5293 392.12 55.713Z" fill="#17052D"/>
<path d="M125.84 134.626C139.41 121.057 139.41 99.057 125.84 85.4878C112.271 71.9187 90.2713 71.9187 76.7021 85.4879C63.1329 99.057 63.1329 121.057 76.7021 134.626C90.2713 148.195 112.271 148.195 125.84 134.626Z" fill="#B555F0"/>
<path opacity="0.4" d="M125.84 134.626C139.41 121.057 139.41 99.057 125.84 85.4878C112.271 71.9187 90.2713 71.9187 76.7021 85.4879C63.1329 99.057 63.1329 121.057 76.7021 134.626C90.2713 148.195 112.271 148.195 125.84 134.626Z" fill="#17052D"/>
<path opacity="0.2" d="M126.212 112.735L125.419 112.851C125.317 112.868 125.212 112.862 125.112 112.834C125.012 112.806 124.919 112.758 124.84 112.691L123.557 111.613C123.501 111.569 123.442 111.531 123.379 111.497L119.638 109.885C119.512 109.83 119.404 109.741 119.327 109.627L117.216 106.643C117.122 106.506 116.993 106.398 116.842 106.331L115.603 105.761C115.547 105.734 115.487 105.716 115.425 105.708L114.116 105.512C113.936 105.48 113.765 105.407 113.617 105.298L110.838 103.196C110.726 103.113 110.594 103.061 110.455 103.045L108.416 102.777C108.282 102.759 108.147 102.778 108.024 102.831L107.471 103.071C107.378 103.111 107.279 103.131 107.177 103.131C107.076 103.131 106.976 103.111 106.884 103.071L104.452 101.949C104.308 101.878 104.145 101.86 103.989 101.896L101.833 102.377C101.698 102.41 101.577 102.485 101.486 102.59L100.595 103.57C100.519 103.654 100.422 103.717 100.314 103.751C100.206 103.785 100.091 103.791 99.9806 103.766L98.1992 103.392L94.4494 101.717L93.2292 99.8114C93.1386 99.662 93.1068 99.4842 93.1401 99.3126L93.4073 97.834L94.298 95.7142C94.3083 95.6935 94.3126 95.6704 94.3104 95.6474C94.3083 95.6244 94.2999 95.6025 94.286 95.584C94.2722 95.5655 94.2535 95.5513 94.232 95.5428C94.2105 95.5343 94.1871 95.532 94.1644 95.536L92.5879 95.7231C92.4884 95.7358 92.3932 95.7714 92.3098 95.827C92.2263 95.8827 92.1569 95.9568 92.1069 96.0438L91.6437 96.8454C91.5906 96.9349 91.5197 97.0127 91.4355 97.074C91.3513 97.1353 91.2554 97.1787 91.1538 97.2017L88.9984 97.6826C88.8992 97.7079 88.7942 97.6943 88.7048 97.6446C88.6154 97.5949 88.5483 97.5129 88.5174 97.4154L88.2502 96.6049L87.5911 95.3935C87.5305 95.2943 87.4984 95.1803 87.4984 95.064C87.4984 94.9477 87.5305 94.8337 87.5911 94.7344L88.6599 93.1757L89.0785 92.098C89.1312 91.9581 89.2282 91.8392 89.3546 91.7595L90.7708 90.8688C90.9148 90.7805 91.0841 90.7429 91.2518 90.7619L92.5968 90.949C92.6818 90.9616 92.7686 90.9562 92.8514 90.9332C92.9343 90.9102 93.0114 90.87 93.0777 90.8154L93.6211 90.3878C93.7199 90.3152 93.8372 90.2719 93.9595 90.2631L95.4648 90.1562C95.5877 90.1496 95.7102 90.1741 95.8211 90.2275L96.6316 90.6016C96.7096 90.6401 96.7753 90.6997 96.8209 90.7738C96.8666 90.8478 96.8905 90.9332 96.8899 91.0202V91.7417C96.8899 91.8551 96.935 91.9638 97.0151 92.044C97.0953 92.1242 97.2041 92.1692 97.3175 92.1692H97.5579C97.6348 92.1682 97.7106 92.1515 97.7807 92.12C97.8508 92.0885 97.9137 92.043 97.9655 91.9862C98.0172 91.9294 98.0568 91.8626 98.0817 91.7899C98.1066 91.7172 98.1163 91.6402 98.1102 91.5635L98.0389 90.9401L97.8964 89.6753C97.8818 89.5549 97.9047 89.4329 97.9621 89.3261C98.0195 89.2192 98.1086 89.1327 98.2171 89.0785L99.66 88.357L101.548 86.2817L102.831 84.3489L105.2 83.6096C105.3 83.5793 105.387 83.5181 105.45 83.4349C105.512 83.3516 105.546 83.2506 105.547 83.1465V81.9886C105.547 81.886 105.58 81.7862 105.644 81.7053C105.707 81.6245 105.795 81.5673 105.895 81.5432L107.462 81.1602C107.602 81.1266 107.725 81.0446 107.81 80.9286L108.46 79.9667C108.483 79.9341 108.498 79.8967 108.504 79.8573C108.51 79.818 108.507 79.7778 108.495 79.7398C108.483 79.7019 108.462 79.6672 108.434 79.6386C108.407 79.61 108.373 79.5881 108.335 79.5748L105.476 78.5238L103.383 77.5084C103.293 77.4649 103.192 77.4462 103.092 77.454C102.992 77.4618 102.896 77.4959 102.813 77.5529L100.141 79.4145C100.048 79.4774 99.9396 79.5154 99.8273 79.5248C99.715 79.5341 99.6022 79.5145 99.4997 79.4679L97.5669 78.5772L96.115 77.9092C96.0864 77.8967 96.0621 77.8762 96.045 77.8501C96.0279 77.8239 96.0188 77.7934 96.0188 77.7622C96.0188 77.731 96.0279 77.7005 96.045 77.6744C96.0621 77.6483 96.0864 77.6277 96.115 77.6152L97.5847 77.1254C97.6501 77.1053 97.7108 77.0719 97.7628 77.0274L99.758 75.3529C94.7803 75.6146 89.9184 76.9516 85.5068 79.2719C83.736 83.7832 82.481 88.4803 81.7659 93.2737C81.7528 93.385 81.7661 93.4979 81.8048 93.6032C81.8434 93.7084 81.9064 93.803 81.9886 93.8794L87.4575 99.1166C87.5549 99.2086 87.6803 99.265 87.8137 99.277L89.8445 99.4997C89.9463 99.5078 90.0443 99.5415 90.1295 99.5976L97.9677 104.309C98.0619 104.363 98.1384 104.443 98.1875 104.54C98.2366 104.636 98.2562 104.745 98.2438 104.853L97.4867 112.771C97.4524 113.067 97.5216 113.366 97.6826 113.617L101.513 119.701C101.563 119.779 101.626 119.848 101.7 119.905L104.639 122.168C104.71 122.223 104.764 122.295 104.797 122.378C104.83 122.461 104.84 122.552 104.826 122.64L103.775 129.071L101.771 139.002C101.967 140.338 103.704 139.519 106.224 137.648L108.727 133.533L110.927 132.642L116.556 128.625L120.431 124.234L122.515 119.62C122.551 119.547 122.596 119.478 122.649 119.416L124.769 116.984L126.185 115.514C126.314 115.38 126.387 115.202 126.39 115.016V112.896C126.392 112.873 126.388 112.849 126.379 112.828C126.371 112.807 126.357 112.787 126.34 112.772C126.323 112.756 126.302 112.745 126.28 112.739C126.258 112.732 126.234 112.731 126.212 112.735Z" fill="black"/>
<path d="M116.752 82.6922H116.708C116.712 82.6746 116.712 82.6563 116.708 82.6388L116.752 82.6922Z" fill="#17052D"/>
<path d="M250.829 172.35C253.733 173.882 276.303 199.338 270.282 211.442C265.828 220.349 237.994 224.491 237.994 224.491L234.565 216.893C234.565 216.893 254.944 209.679 256.146 206.517C257.349 203.355 234.449 186.521 234.449 186.521L250.829 172.35Z" fill="#B555F0"/>
<path opacity="0.3" d="M250.829 172.35C253.733 173.882 276.303 199.338 270.282 211.442C265.828 220.349 237.994 224.491 237.994 224.491L234.565 216.893C234.565 216.893 254.944 209.679 256.146 206.517C257.349 203.355 234.449 186.521 234.449 186.521L250.829 172.35Z" fill="#17052D"/>
<path opacity="0.2" d="M247.729 211.656C246.999 214.613 244.879 216.893 240.55 218.123L243.222 223.529L242.67 223.645L238.448 215.451L247.729 211.656Z" fill="black"/>
<path d="M237.62 213.767L243.525 225.239L232.151 227.813C231.989 227.847 231.836 227.914 231.701 228.01C231.567 228.107 231.454 228.23 231.37 228.373C231.286 228.515 231.233 228.674 231.214 228.839C231.195 229.003 231.211 229.17 231.26 229.328L232.614 233.505C232.727 233.878 232.714 234.278 232.577 234.644C232.44 235.009 232.187 235.319 231.857 235.527L230.966 236.061C230.697 236.221 230.377 236.271 230.072 236.201C229.767 236.132 229.501 235.948 229.328 235.687L219.53 220.893C219.468 220.799 219.428 220.693 219.414 220.582C219.4 220.471 219.411 220.359 219.447 220.253C219.483 220.147 219.543 220.051 219.623 219.972C219.702 219.893 219.798 219.833 219.904 219.797L237.62 213.767Z" fill="#B555F0"/>
<g opacity="0.2">
<path d="M237.62 213.767L243.525 225.239L232.151 227.813C231.989 227.847 231.836 227.914 231.701 228.01C231.567 228.107 231.454 228.23 231.37 228.373C231.286 228.515 231.233 228.674 231.214 228.839C231.195 229.003 231.211 229.17 231.26 229.328L232.614 233.505C232.727 233.878 232.714 234.278 232.577 234.644C232.44 235.009 232.187 235.319 231.857 235.527L230.966 236.061C230.697 236.221 230.377 236.271 230.072 236.201C229.767 236.132 229.501 235.948 229.328 235.687L219.53 220.893C219.468 220.799 219.428 220.693 219.414 220.582C219.4 220.471 219.411 220.359 219.447 220.253C219.483 220.147 219.543 220.051 219.623 219.972C219.702 219.893 219.798 219.833 219.904 219.797L237.62 213.767Z" fill="#17052D"/>
</g>
<path opacity="0.2" d="M227.128 217.33C231.309 218.392 235.647 218.694 239.936 218.221L237.62 213.723L227.128 217.33Z" fill="black"/>
<path opacity="0.2" d="M249.698 198.696L251.568 200.407C253.474 193.522 250.036 186.93 248.896 178.139L247.248 178.602C248.818 185.187 249.639 191.928 249.698 198.696Z" fill="black"/>
<path d="M199.658 246.046L183.483 252.254L180.455 228.464L196.434 222.059L199.658 246.046Z" fill="#B555F0"/>
<path opacity="0.2" d="M199.658 246.046L183.483 252.254L180.455 228.464L196.434 222.059L199.658 246.046Z" fill="black"/>
<path d="M189.469 222.674C199.097 202.963 208.752 188.756 218.479 186.868L292.148 165.669C309.82 162.997 325.763 168.217 339.881 181.862C337.271 204.005 326.52 215.629 311.093 221.133L234.903 241.156C227.947 242.884 213.66 237.522 189.469 222.674Z" fill="#B555F0"/>
<path d="M168.921 225.088L194.867 212.876C201.654 217.33 202.375 223.974 200.273 229.212L173.944 237.878C168.288 234.511 167.13 230.806 168.921 225.088Z" fill="#B555F0"/>
<path d="M150.733 219.209L140.124 220.162C136.855 220.455 133.77 221.803 131.333 224.001L98.5466 253.643L142.912 257.411C145.297 257.616 147.696 257.253 149.913 256.351L158.41 252.878C160.716 251.936 162.754 250.44 164.343 248.523C165.932 246.606 167.024 244.326 167.522 241.886L167.861 240.23C168.37 237.703 168.226 235.088 167.442 232.632L166.48 229.63C165.873 227.727 164.895 225.962 163.603 224.438C162.031 222.602 160.042 221.17 157.803 220.26C155.564 219.351 153.139 218.99 150.733 219.209Z" fill="#B555F0"/>
<path opacity="0.19" d="M150.733 219.209L140.124 220.162C136.855 220.455 133.77 221.803 131.333 224.001L98.5466 253.643L142.912 257.411C145.297 257.616 147.696 257.253 149.913 256.351L158.41 252.878C160.716 251.936 162.754 250.44 164.343 248.523C165.932 246.606 167.024 244.326 167.522 241.886L167.861 240.23C168.37 237.703 168.226 235.088 167.442 232.632L166.48 229.63C165.873 227.727 164.895 225.962 163.603 224.438C162.031 222.602 160.042 221.17 157.803 220.26C155.564 219.351 153.139 218.99 150.733 219.209Z" fill="#17052D"/>
<path opacity="0.29" d="M157.35 226.762L151.944 227.252C150.288 227.405 148.725 228.089 147.49 229.203L130.79 244.3L153.387 246.242C154.601 246.344 155.821 246.158 156.95 245.699L161.278 243.917C162.453 243.437 163.491 242.675 164.301 241.697C165.11 240.72 165.666 239.558 165.919 238.315L166.088 237.468C166.351 236.184 166.28 234.853 165.883 233.603L165.393 232.071C165.086 231.091 164.586 230.183 163.924 229.399C163.119 228.465 162.102 227.738 160.958 227.279C159.814 226.821 158.577 226.643 157.35 226.762Z" fill="#17052D"/>
<path d="M159.435 229.996L156.05 230.298C155.01 230.396 154.028 230.827 153.253 231.528L142.814 240.969L156.941 242.18C157.702 242.243 158.468 242.127 159.176 241.842L161.848 240.737C162.582 240.435 163.23 239.957 163.735 239.345C164.24 238.733 164.586 238.006 164.743 237.228L164.85 236.702C165.011 235.9 164.965 235.069 164.716 234.289L164.414 233.327C164.227 232.725 163.924 232.165 163.523 231.679C163.025 231.093 162.394 230.635 161.683 230.342C160.972 230.049 160.201 229.93 159.435 229.996Z" fill="#B555F0"/>
<path opacity="0.1" d="M189.469 222.674C199.097 202.963 208.752 188.756 219.067 186.699L292.683 165.536C309.775 162.997 325.719 168.253 339.836 181.898C337.226 204.041 326.476 215.664 311.049 221.169L234.859 241.192C227.947 242.884 213.66 237.522 189.469 222.674Z" fill="black"/>
<path d="M168.921 225.088L194.867 212.876C193.219 220.046 196.817 225.783 200.273 229.212L173.944 237.878C168.288 234.511 167.13 230.806 168.921 225.088Z" fill="#B555F0"/>
<path d="M164.903 264.84L189.692 255.371L194.181 225.489L175.627 232.632L164.903 264.84Z" fill="#B555F0"/>
<path opacity="0.3" d="M164.903 264.84L189.692 255.371L194.181 225.489L175.627 232.632L164.903 264.84Z" fill="#17052D"/>
<path d="M143.366 205.564L170.381 197.352L192.426 216.795L171.112 225.569L143.366 205.564Z" fill="#B555F0"/>
<path opacity="0.3" d="M143.366 205.564L170.381 197.352L192.426 216.795L171.112 225.569L143.366 205.564Z" fill="#17052D"/>
<path opacity="0.7" d="M280.863 168.938L284.586 167.869C283.299 168.747 282.217 169.892 281.413 171.226C280.609 172.561 280.102 174.053 279.928 175.601C276.659 192.809 280.943 208.556 291.828 222.193C293.609 224.028 296.522 224.482 299.007 224.331L295.818 225.168C292.451 225.391 290.892 224.277 288.942 222.496C277.977 211.995 273.15 191.063 276.944 175.841C277.639 172.243 279.313 169.384 280.863 168.938Z" fill="#17052D"/>
<path opacity="0.7" d="M272.375 171.379L275.938 170.355C273.675 171.334 271.769 174.942 271.279 178.05C268.019 195.258 272.33 210.801 283.179 224.642C284.711 226.344 287.802 226.771 290.305 226.629L286.973 227.475C283.607 227.698 282.137 226.896 280.311 224.963C269.347 214.462 264.51 193.53 268.304 178.308C268.839 174.719 271.315 171.682 272.375 171.379Z" fill="#17052D"/>
<path d="M337.351 180.749C336.665 182.593 336.977 184 338.714 184.757L361.703 177.81C365.15 176.393 366.424 175.494 361.293 176.144L337.351 180.749Z" fill="#B555F0"/>
<path opacity="0.3" d="M337.351 180.749C336.665 182.593 336.977 184 338.714 184.757L361.703 177.81C365.15 176.393 366.424 175.494 361.293 176.144L337.351 180.749Z" fill="black"/>
<path opacity="0.2" d="M198.126 226.745C212.885 232.089 229.488 239.277 236.533 237.157L311.744 217.161C321.657 215.691 330.769 196.407 337.645 184.045C329.629 195.428 321.524 212.199 309.74 214.622L236.533 234.253C228.018 237.077 211.799 230.325 198.126 226.745Z" fill="black"/>
<path opacity="0.4" d="M284.595 169.731C283.149 170.799 282.159 172.374 281.825 174.14L294.295 170.684C306.043 168.128 326.761 175.877 337.048 182.263C328.141 174.354 306.034 164.788 295.186 167.397L284.595 169.731Z" fill="#17052D"/>
<path opacity="0.3" d="M337.262 183.501L338.26 184.526L364.482 176.465L337.262 183.501Z" fill="black"/>
<path opacity="0.2" d="M244.113 179.502L243.472 215.023L218.399 215.157C231.465 220.189 244.496 221.694 247.89 216.626C253.759 206.829 253.501 193.343 249.671 177.89L244.113 179.502Z" fill="black"/>
<path opacity="0.2" d="M250.081 179.457L269.961 173.9C269.212 174.874 268.717 176.018 268.518 177.231L250.704 182.29L250.081 179.457Z" fill="#07010E"/>
<path opacity="0.2" d="M227.635 186.761L217.561 189.977C215.211 191.096 213.094 192.652 211.327 194.564L205.875 200.879L209.625 201.698L214.15 196.425C215.525 194.828 217.214 193.531 219.111 192.613L228.722 189.202L227.635 186.761Z" fill="#E0E0E0"/>
<path d="M208.325 138.949L221.846 149.334L243.641 152.113L257.153 120.867L250.784 112.103L221.846 101.762C214.569 112.112 211.166 124.982 208.325 138.949Z" fill="#B555F0"/>
<path opacity="0.2" d="M208.325 138.949L221.846 149.334L243.641 152.113L257.153 120.867L250.784 112.103L221.846 101.762C215.548 110.847 211.148 123.495 208.325 138.949Z" fill="#17052D"/>
<path opacity="0.3" d="M208.325 138.949L221.846 149.325L235.839 114.748C231.314 112.156 226.655 107.881 221.846 101.762C216.181 109.19 211.736 121.874 208.325 138.949Z" fill="black"/>
<path d="M245.307 172.376C247.141 175.049 254.944 208.28 243.917 216.101C235.812 221.846 209.296 212.333 209.296 212.333L209.857 204.014C209.857 204.014 231.234 207.301 233.79 205.083C236.346 202.865 224.74 182.637 224.126 177.204C223.511 171.771 245.307 172.376 245.307 172.376Z" fill="#B555F0"/>
<path opacity="0.3" d="M245.307 172.376C247.141 175.049 254.944 208.28 243.917 216.101C235.812 221.846 209.296 212.333 209.296 212.333L209.857 204.014C209.857 204.014 231.234 207.301 233.79 205.083C236.346 202.865 224.74 182.637 224.126 177.204C223.511 171.771 245.307 172.376 245.307 172.376Z" fill="#17052D"/>
<path d="M219.165 203.747L218.345 216.617L207.256 212.992C207.098 212.941 206.931 212.924 206.766 212.942C206.601 212.961 206.442 213.014 206.299 213.098C206.156 213.182 206.033 213.295 205.936 213.431C205.84 213.566 205.774 213.72 205.742 213.883L204.762 218.158C204.667 218.537 204.449 218.874 204.143 219.117C203.838 219.36 203.46 219.495 203.07 219.503H202.037C201.724 219.504 201.422 219.384 201.195 219.168C200.968 218.953 200.832 218.658 200.816 218.345L199.997 200.611C199.991 200.499 200.012 200.387 200.057 200.283C200.102 200.18 200.17 200.089 200.257 200.016C200.343 199.944 200.445 199.892 200.554 199.866C200.664 199.839 200.778 199.838 200.888 199.863L219.165 203.747Z" fill="#B555F0"/>
<path d="M264.635 121.705C264.635 121.705 268.687 141.541 271.457 145.522C274.228 149.503 288.381 162.864 288.381 162.864L287.045 167.014C287.045 167.014 265.793 153.378 264.332 151.463C262.871 149.548 252.958 130.932 252.958 130.932L264.635 121.705Z" fill="#B555F0"/>
<path d="M271.457 99.5442C271.457 99.5442 270.3 105.182 265.935 106.42C261.571 107.658 266.006 95.5717 266.006 95.5717L269.997 94.5919L271.457 99.5442Z" fill="#263238"/>
<path d="M270.927 113.229C277.119 107.037 277.119 96.999 270.927 90.8074C264.736 84.6159 254.697 84.6159 248.506 90.8075C242.314 96.999 242.314 107.037 248.506 113.229C254.697 119.42 264.736 119.42 270.927 113.229Z" fill="#263238"/>
<path opacity="0.2" d="M270.927 113.229C277.119 107.037 277.119 96.999 270.927 90.8074C264.736 84.6159 254.697 84.6159 248.506 90.8075C242.314 96.999 242.314 107.037 248.506 113.229C254.697 119.42 264.736 119.42 270.927 113.229Z" fill="#17052D"/>
<path opacity="0.7" d="M263.646 114.25C266.955 113.581 269.882 111.668 271.823 108.905L270.602 108.184C268.409 110.53 265.719 112.356 262.729 113.528L263.646 114.25Z" fill="#17052D"/>
<path opacity="0.7" d="M272.241 108.068L270.976 107.471C271.268 107.143 271.467 106.744 271.555 106.313L272.74 106.919C272.705 107.347 272.529 107.75 272.241 108.068Z" fill="#17052D"/>
<path d="M247.907 113.778C247.017 117.046 256.422 121.642 259.718 118.374C257.937 117.029 257.473 115.621 257.696 114.25C257.861 113.417 258.191 112.627 258.667 111.925C258.916 111.522 259.189 111.136 259.486 110.767L255.478 102.466C254.65 106.118 252.797 114.365 247.907 113.778Z" fill="#8B4513"/>
<path opacity="0.2" d="M255.371 106.349C253.59 110.42 256.262 113.199 257.696 114.25C257.861 113.417 258.191 112.627 258.667 111.925L255.371 106.349Z" fill="black"/>
<path d="M254.044 107.917C254.368 109.253 255.124 110.445 256.196 111.306C257.267 112.168 258.593 112.652 259.967 112.682C261.747 112.764 263.49 112.161 264.84 110.999C265.028 110.841 265.207 110.671 265.374 110.491C268.527 107.142 271.609 100.399 268.367 96.2397C267.657 95.3182 266.722 94.5943 265.653 94.1374C264.583 93.6804 263.414 93.5057 262.257 93.6299C261.101 93.7542 259.995 94.1732 259.047 94.8469C258.099 95.5207 257.339 96.4265 256.841 97.4778C254.623 101.949 253.118 104.47 254.044 107.917Z" fill="#8B4513"/>
<path d="M262.702 102.43C262.644 102.49 262.6 102.562 262.571 102.64C262.541 102.718 262.529 102.802 262.533 102.885C262.537 102.968 262.558 103.05 262.595 103.125C262.632 103.2 262.683 103.266 262.746 103.321C262.987 103.454 263.334 103.321 263.53 102.92C263.726 102.519 263.708 102.181 263.477 102.029C263.245 101.878 262.907 102.1 262.702 102.43Z" fill="#263238"/>
<path d="M266.666 104.737C266.555 104.862 266.498 105.026 266.508 105.193C266.518 105.36 266.594 105.516 266.719 105.628C266.951 105.752 267.298 105.574 267.503 105.227C267.708 104.879 267.681 104.479 267.449 104.336C267.218 104.194 266.861 104.398 266.666 104.737Z" fill="#263238"/>
<path d="M265.312 104.211C265.11 105.524 265.095 106.858 265.267 108.175C264.927 108.21 264.583 108.17 264.26 108.057C263.937 107.945 263.642 107.763 263.397 107.525L265.312 104.211Z" fill="#8B4513"/>
<path d="M262.203 100.471C262.241 100.492 262.284 100.504 262.328 100.504C262.372 100.504 262.415 100.492 262.452 100.471C262.723 100.348 263.019 100.29 263.316 100.302C263.613 100.315 263.903 100.397 264.163 100.542C264.214 100.566 264.273 100.57 264.327 100.555C264.382 100.54 264.43 100.506 264.462 100.459C264.494 100.412 264.508 100.355 264.503 100.298C264.497 100.242 264.471 100.189 264.43 100.15C264.105 99.9584 263.738 99.8479 263.362 99.8277C262.985 99.8076 262.609 99.8783 262.265 100.034C262.207 100.058 262.159 100.104 262.134 100.162C262.109 100.221 262.108 100.287 262.132 100.346C262.148 100.391 262.172 100.434 262.203 100.471Z" fill="#263238"/>
<path d="M261.784 108.986C261.238 108.775 260.75 108.436 260.363 107.998C259.975 107.559 259.699 107.033 259.558 106.465C259.553 106.431 259.561 106.396 259.581 106.368C259.601 106.339 259.631 106.32 259.665 106.313C259.696 106.308 259.729 106.315 259.756 106.334C259.782 106.352 259.801 106.38 259.807 106.411C259.946 106.934 260.205 107.417 260.561 107.824C260.918 108.23 261.364 108.548 261.865 108.754C261.879 108.759 261.893 108.767 261.905 108.777C261.917 108.788 261.926 108.8 261.933 108.814C261.939 108.829 261.943 108.844 261.944 108.86C261.944 108.875 261.942 108.891 261.936 108.905C261.924 108.936 261.9 108.961 261.87 108.974C261.84 108.987 261.806 108.988 261.776 108.977L261.784 108.986Z" fill="#263238"/>
<path d="M269.159 104.345C269.188 104.382 269.229 104.407 269.275 104.416C269.306 104.42 269.338 104.417 269.368 104.408C269.398 104.4 269.426 104.385 269.45 104.365C269.474 104.345 269.494 104.32 269.509 104.292C269.523 104.264 269.531 104.234 269.534 104.203C269.566 103.827 269.508 103.448 269.364 103.099C269.22 102.75 268.994 102.442 268.705 102.198C268.681 102.179 268.653 102.165 268.623 102.157C268.593 102.149 268.562 102.147 268.531 102.151C268.5 102.155 268.471 102.165 268.444 102.181C268.417 102.197 268.394 102.218 268.376 102.243C268.34 102.294 268.326 102.357 268.336 102.419C268.346 102.48 268.379 102.535 268.429 102.573C268.649 102.774 268.819 103.024 268.927 103.302C269.035 103.58 269.078 103.879 269.053 104.176C269.058 104.21 269.07 104.243 269.088 104.272C269.107 104.301 269.131 104.326 269.159 104.345Z" fill="#263238"/>
<path d="M253.973 100.114C254.953 95.7142 256.529 92.4988 258.106 91.7684C259.682 91.038 263.584 96.4357 263.584 96.4357C263.346 96.2292 263.057 96.0895 262.748 96.0308C262.439 95.9721 262.119 95.9965 261.822 96.1016C261.525 96.2066 261.261 96.3885 261.058 96.6287C260.854 96.8688 260.717 97.1588 260.662 97.4689C260.457 99.4284 258.222 101.495 256.44 101.869C256.44 101.869 256.77 101.139 256.084 100.978C255.398 100.818 253.67 104.63 253.937 106.999C253.937 107.017 252.958 104.514 253.973 100.114Z" fill="#263238"/>
<path d="M252.958 99.9628C252.879 101.212 253.298 102.442 254.125 103.383C255.22 104.621 256.672 103.855 257.117 102.341C257.5 100.996 257.42 98.698 255.942 98.03C255.619 97.8836 255.265 97.8206 254.912 97.8469C254.559 97.8732 254.218 97.9878 253.921 98.1803C253.624 98.3728 253.38 98.637 253.212 98.9484C253.043 99.2599 252.956 99.6088 252.958 99.9628Z" fill="#8B4513"/>
<path d="M256.734 93.8883C256.734 93.8883 259.807 90.3255 265.802 90.8065C273.132 91.421 272.152 101.584 270.905 102.02C269.934 102.181 270.691 97.7183 269.649 98.1369C268.848 98.7337 268.848 99.2057 268.01 99.1256C267.538 99.1256 266.977 98.0745 266.416 96.9612C265.321 95.8211 262.809 99.4729 260.947 100.23C259.255 99.758 257.839 96.1952 256.734 93.8883Z" fill="#263238"/>
<path d="M221.668 154.571C221.151 162.997 222.229 173.677 224.874 180.019L247.266 178.611L255.131 176.331C253.652 174.808 250.277 166.783 252.575 154.206L221.668 154.571Z" fill="#B555F0"/>
<g opacity="0.3">
<path d="M221.668 154.571C221.151 162.997 222.229 173.677 224.874 180.019L247.266 178.611L255.131 176.331C253.474 174.55 250.41 166.792 252.575 154.206L221.668 154.571Z" fill="#17052D"/>
</g>
<path opacity="0.2" d="M247.266 178.611L248.504 174.327L252.878 176.99L247.266 178.611Z" fill="black"/>
<path d="M255.371 102.973L255.086 105.058C254.997 105.702 255.077 106.359 255.318 106.964L255.452 107.293C255.694 107.899 256.09 108.432 256.6 108.838C257.111 109.244 257.719 109.51 258.364 109.609L259.709 109.814V110.446L257.928 110.108C257.317 109.989 256.746 109.721 256.264 109.328C255.782 108.935 255.405 108.429 255.167 107.854L254.855 107.097C254.576 106.418 254.502 105.672 254.641 104.951L255.042 102.866L255.371 102.973Z" fill="#263238"/>
<path opacity="0.2" d="M255.371 102.973L255.086 105.058C254.997 105.702 255.077 106.359 255.318 106.964L255.452 107.293C255.694 107.899 256.09 108.432 256.6 108.838C257.111 109.244 257.719 109.51 258.364 109.609L259.709 109.814V110.446L257.928 110.108C257.317 109.989 256.746 109.721 256.264 109.328C255.782 108.935 255.405 108.429 255.167 107.854L254.855 107.097C254.576 106.418 254.502 105.672 254.641 104.951L255.042 102.866L255.371 102.973Z" fill="#17052D"/>
<path d="M260.733 109.44H259.78C259.495 109.44 259.264 109.671 259.264 109.956V110.598C259.264 110.883 259.495 111.114 259.78 111.114H260.733C261.019 111.114 261.25 110.883 261.25 110.598V109.956C261.25 109.671 261.019 109.44 260.733 109.44Z" fill="#263238"/>
<path d="M255.612 100.186H254.908C254.598 100.186 254.347 100.437 254.347 100.747V102.697C254.347 103.007 254.598 103.258 254.908 103.258H255.612C255.922 103.258 256.173 103.007 256.173 102.697V100.747C256.173 100.437 255.922 100.186 255.612 100.186Z" fill="#263238"/>
<path opacity="0.15" d="M264.635 121.705C264.635 121.705 268.687 141.541 271.457 145.522C274.228 149.503 289.013 163.469 289.013 163.469L286.492 166.623C286.492 166.623 265.81 153.378 264.35 151.481C262.889 149.584 252.958 130.932 252.958 130.932L264.635 121.705Z" fill="#17052D"/>
<path opacity="0.2" d="M257.661 135.751L260.921 145.602L256.832 138.156L257.661 135.751Z" fill="black"/>
<path d="M221.507 157.199L252.067 159.141C252.067 159.141 255.63 131.235 265.427 122.293L260.395 118.151L247.035 113.519C247.035 113.519 240.212 113.332 236.204 114.187C234.963 115.715 233.832 117.328 232.819 119.015C230.812 122.29 229.072 125.721 227.617 129.276C223.983 138.16 221.915 147.608 221.507 157.199Z" fill="#B555F0"/>
<path opacity="0.2" d="M252.245 157.903L242.447 150.955C240.666 149.245 235.696 137.319 231.973 129.418L252.851 154.571L252.245 157.903Z" fill="black"/>
<path opacity="0.2" d="M242.207 113.564H243.329L263.192 120.458L264.02 121.135C263.772 121.784 263.28 122.312 262.648 122.604L261.499 123.157C254.214 120.502 247.426 117.955 242.207 113.564Z" fill="#263238"/>
<path d="M243.73 119.923C243.73 119.923 249.261 139.207 252.031 143.188C254.801 147.17 273.524 165.5 273.524 165.5L270.531 168.876C270.531 168.876 245.672 152.211 244.211 150.296C242.75 148.381 232.115 129.979 232.115 129.979C229.265 122.132 239.597 109.894 243.73 119.923Z" fill="#B555F0"/>
<path opacity="0.15" d="M243.73 119.923C243.73 119.923 249.261 139.207 252.031 143.188C254.801 147.17 273.524 165.5 273.524 165.5L270.531 168.876C270.531 168.876 245.672 152.211 244.211 150.296C242.75 148.381 232.115 129.979 232.115 129.979C229.265 122.132 239.597 109.894 243.73 119.923Z" fill="#17052D"/>
<path d="M234.761 128.198L236.792 132.366C237.682 129.017 239.286 127.022 241.673 126.47L239.303 121.705C236.999 123.193 235.369 125.523 234.761 128.198Z" fill="#B555F0"/>
<g opacity="0.2">
<path d="M219.165 203.747L218.345 216.617L207.256 212.992C207.098 212.941 206.931 212.924 206.766 212.942C206.601 212.961 206.442 213.014 206.299 213.098C206.156 213.182 206.033 213.295 205.936 213.431C205.84 213.566 205.774 213.72 205.742 213.883L204.762 218.158C204.667 218.537 204.449 218.874 204.143 219.117C203.838 219.36 203.46 219.495 203.07 219.503H202.037C201.724 219.504 201.422 219.384 201.195 219.168C200.968 218.953 200.832 218.658 200.816 218.345L199.997 200.611C199.991 200.499 200.012 200.387 200.057 200.283C200.102 200.18 200.17 200.089 200.257 200.016C200.343 199.944 200.445 199.892 200.554 199.866C200.664 199.839 200.778 199.838 200.888 199.863L219.165 203.747Z" fill="#17052D"/>
</g>
<path d="M267.708 157.546L260.27 165.082L270.718 169.811L273.123 175.289C273.169 175.392 273.238 175.482 273.326 175.552C273.414 175.621 273.518 175.669 273.628 175.69C273.739 175.711 273.852 175.705 273.96 175.672C274.067 175.64 274.165 175.582 274.245 175.503L279.438 170.39C279.504 170.327 279.555 170.25 279.589 170.166C279.622 170.081 279.638 169.99 279.633 169.899C279.629 169.808 279.606 169.719 279.564 169.638C279.523 169.557 279.465 169.485 279.394 169.428L274.539 165.393L267.708 157.546Z" fill="#B555F0"/>
<path opacity="0.3" d="M267.708 157.546L260.27 165.082L270.718 169.811L273.123 175.289C273.169 175.392 273.238 175.482 273.326 175.552C273.414 175.621 273.518 175.669 273.628 175.69C273.739 175.711 273.852 175.705 273.96 175.672C274.067 175.64 274.165 175.582 274.245 175.503L279.438 170.39C279.504 170.327 279.555 170.25 279.589 170.166C279.622 170.081 279.638 169.99 279.633 169.899C279.629 169.808 279.606 169.719 279.564 169.638C279.523 169.557 279.465 169.485 279.394 169.428L274.539 165.393L267.708 157.546Z" fill="#17052D"/>
<path d="M275.154 162.81L282.6 154.571L289.209 162.205L293.743 164.503C293.806 164.536 293.863 164.582 293.908 164.638C293.953 164.694 293.986 164.759 294.005 164.828C294.025 164.897 294.029 164.97 294.019 165.041C294.009 165.112 293.985 165.181 293.948 165.242L293.823 165.456L286.127 167.415L285.575 166.756L275.154 162.81Z" fill="#B555F0"/>
<g opacity="0.3">
<path d="M275.154 162.81L282.6 154.571L289.209 162.205L293.743 164.503C293.806 164.536 293.863 164.582 293.908 164.638C293.953 164.694 293.986 164.759 294.005 164.828C294.025 164.897 294.029 164.97 294.019 165.041C294.009 165.112 293.985 165.181 293.948 165.242L293.823 165.456L286.127 167.415L285.575 166.756L275.154 162.81Z" fill="#17052D"/>
</g>
<path d="M275.572 102.02C275.576 99.6475 275.046 97.3042 274.023 95.1633C273 93.0223 271.51 91.1383 269.662 89.6501C267.814 88.1619 265.655 87.1075 263.345 86.5646C261.035 86.0218 258.633 86.0043 256.316 86.5136C253.998 87.0228 251.824 88.0458 249.955 89.507C248.085 90.9682 246.568 92.8304 245.514 94.9562C244.46 97.0821 243.896 99.4175 243.865 101.79C243.834 104.163 244.336 106.512 245.333 108.665L244.692 108.148C243.16 109.039 242.358 110.544 242.412 112.816C248.196 117.159 254.756 120.358 261.74 122.239C262.418 121.658 262.97 120.944 263.362 120.141C263.754 119.338 263.978 118.464 264.02 117.572L263.352 117.429C266.826 116.611 269.923 114.645 272.14 111.849C274.358 109.052 275.567 105.589 275.572 102.02ZM262.212 115.212C259.934 115.212 257.708 114.536 255.814 113.271C253.92 112.005 252.444 110.206 251.572 108.102C250.7 105.998 250.472 103.682 250.917 101.448C251.361 99.214 252.458 97.1619 254.068 95.5513C255.679 93.9407 257.731 92.8438 259.965 92.3994C262.199 91.9551 264.515 92.1831 266.619 93.0548C268.724 93.9265 270.522 95.4026 271.788 97.2965C273.053 99.1904 273.729 101.417 273.729 103.695C273.731 106.744 272.523 109.669 270.371 111.828C268.218 113.988 265.297 115.204 262.248 115.212H262.212Z" fill="#B555F0"/>
<path opacity="0.3" d="M275.572 102.02C275.576 99.6475 275.046 97.3042 274.023 95.1633C273 93.0223 271.51 91.1383 269.662 89.6501C267.814 88.1619 265.655 87.1075 263.345 86.5646C261.035 86.0218 258.633 86.0043 256.316 86.5136C253.998 87.0228 251.824 88.0458 249.955 89.507C248.085 90.9682 246.568 92.8304 245.514 94.9562C244.46 97.0821 243.896 99.4175 243.865 101.79C243.834 104.163 244.336 106.512 245.333 108.665L244.692 108.148C243.16 109.039 242.358 110.544 242.412 112.816C248.196 117.159 254.756 120.358 261.74 122.239C262.418 121.658 262.97 120.944 263.362 120.141C263.754 119.338 263.978 118.464 264.02 117.572L263.352 117.429C266.826 116.611 269.923 114.645 272.14 111.849C274.358 109.052 275.567 105.589 275.572 102.02ZM262.212 115.212C259.934 115.212 257.708 114.536 255.814 113.271C253.92 112.005 252.444 110.206 251.572 108.102C250.7 105.998 250.472 103.682 250.917 101.448C251.361 99.214 252.458 97.1619 254.068 95.5513C255.679 93.9407 257.731 92.8438 259.965 92.3994C262.199 91.9551 264.515 92.1831 266.619 93.0548C268.724 93.9265 270.522 95.4026 271.788 97.2965C273.053 99.1904 273.729 101.417 273.729 103.695C273.731 106.744 272.523 109.669 270.371 111.828C268.218 113.988 265.297 115.204 262.248 115.212H262.212Z" fill="#17052D"/>
<path opacity="0.2" d="M245.992 109.003L250.784 112.103C247.222 109.52 245.182 105.743 244.79 100.604C244.368 103.461 244.786 106.379 245.992 109.003Z" fill="black"/>
<path opacity="0.2" d="M263.646 88.3036C266.039 88.9629 268.249 90.1649 270.102 91.8161C271.956 93.4674 273.404 95.5236 274.334 97.8252C273.581 95.6381 272.391 93.6269 270.837 91.9136C269.283 90.2003 267.397 88.8206 265.294 87.8583L263.646 88.3036Z" fill="#17052D"/>
<path opacity="0.2" d="M264.35 87.4842L262.773 88.1077L261.402 87.8583L261.758 86.7805C262.666 86.8025 263.555 87.0439 264.35 87.4842Z" fill="#17052D"/>
<path opacity="0.2" d="M219.067 205.199L218.39 215.112L218.951 215.263L219.708 205.261L219.067 205.199Z" fill="#263238"/>
</svg>
